%TF.GenerationSoftware,KiCad,Pcbnew,7.0.7*%
%TF.CreationDate,2024-01-30T18:09:48+01:00*%
%TF.ProjectId,v0.4.4c,76302e34-2e34-4632-9e6b-696361645f70,4c*%
%TF.SameCoordinates,Original*%
%TF.FileFunction,Other,User*%
%FSLAX46Y46*%
G04 Gerber Fmt 4.6, Leading zero omitted, Abs format (unit mm)*
G04 Created by KiCad (PCBNEW 7.0.7) date 2024-01-30 18:09:48*
%MOMM*%
%LPD*%
G01*
G04 APERTURE LIST*
%ADD10C,0.050000*%
%ADD11C,0.100000*%
G04 APERTURE END LIST*
D10*
X139520000Y-130450000D02*
X142880000Y-130450000D01*
X139520000Y-132350000D02*
X139520000Y-130450000D01*
X142880000Y-130450000D02*
X142880000Y-132350000D01*
X142880000Y-132350000D02*
X139520000Y-132350000D01*
X143920000Y-115650000D02*
X147280000Y-115650000D01*
X143920000Y-117550000D02*
X143920000Y-115650000D01*
X147280000Y-115650000D02*
X147280000Y-117550000D01*
X147280000Y-117550000D02*
X143920000Y-117550000D01*
X139520000Y-125950000D02*
X142880000Y-125950000D01*
X139520000Y-127850000D02*
X139520000Y-125950000D01*
X142880000Y-125950000D02*
X142880000Y-127850000D01*
X142880000Y-127850000D02*
X139520000Y-127850000D01*
X139520000Y-128200000D02*
X142880000Y-128200000D01*
X139520000Y-130100000D02*
X139520000Y-128200000D01*
X142880000Y-128200000D02*
X142880000Y-130100000D01*
X142880000Y-130100000D02*
X139520000Y-130100000D01*
X139520000Y-123700000D02*
X142880000Y-123700000D01*
X139520000Y-125600000D02*
X139520000Y-123700000D01*
X142880000Y-123700000D02*
X142880000Y-125600000D01*
X142880000Y-125600000D02*
X139520000Y-125600000D01*
X152620000Y-125950000D02*
X155980000Y-125950000D01*
X152620000Y-127850000D02*
X152620000Y-125950000D01*
X155980000Y-125950000D02*
X155980000Y-127850000D01*
X155980000Y-127850000D02*
X152620000Y-127850000D01*
X152620000Y-128200000D02*
X155980000Y-128200000D01*
X152620000Y-130100000D02*
X152620000Y-128200000D01*
X155980000Y-128200000D02*
X155980000Y-130100000D01*
X155980000Y-130100000D02*
X152620000Y-130100000D01*
X152620000Y-123700000D02*
X155980000Y-123700000D01*
X152620000Y-125600000D02*
X152620000Y-123700000D01*
X155980000Y-123700000D02*
X155980000Y-125600000D01*
X155980000Y-125600000D02*
X152620000Y-125600000D01*
X198580000Y-113850000D02*
X195220000Y-113850000D01*
X198580000Y-111950000D02*
X198580000Y-113850000D01*
X195220000Y-113850000D02*
X195220000Y-111950000D01*
X195220000Y-111950000D02*
X198580000Y-111950000D01*
X190259000Y-50037500D02*
X190259000Y-41237500D01*
X195059000Y-50037500D02*
X190259000Y-50037500D01*
X190259000Y-41237500D02*
X195059000Y-41237500D01*
X195059000Y-41237500D02*
X195059000Y-50037500D01*
X147180000Y-95150000D02*
X143820000Y-95150000D01*
X147180000Y-93250000D02*
X147180000Y-95150000D01*
X143820000Y-95150000D02*
X143820000Y-93250000D01*
X143820000Y-93250000D02*
X147180000Y-93250000D01*
X147180000Y-92650000D02*
X143820000Y-92650000D01*
X147180000Y-90750000D02*
X147180000Y-92650000D01*
X143820000Y-92650000D02*
X143820000Y-90750000D01*
X143820000Y-90750000D02*
X147180000Y-90750000D01*
X122380000Y-94650000D02*
X119020000Y-94650000D01*
X122380000Y-92750000D02*
X122380000Y-94650000D01*
X119020000Y-94650000D02*
X119020000Y-92750000D01*
X119020000Y-92750000D02*
X122380000Y-92750000D01*
X122380000Y-102450000D02*
X119020000Y-102450000D01*
X122380000Y-100550000D02*
X122380000Y-102450000D01*
X119020000Y-102450000D02*
X119020000Y-100550000D01*
X119020000Y-100550000D02*
X122380000Y-100550000D01*
X122380000Y-84650000D02*
X119020000Y-84650000D01*
X122380000Y-82750000D02*
X122380000Y-84650000D01*
X119020000Y-84650000D02*
X119020000Y-82750000D01*
X119020000Y-82750000D02*
X122380000Y-82750000D01*
X122380000Y-92450000D02*
X119020000Y-92450000D01*
X122380000Y-90550000D02*
X122380000Y-92450000D01*
X119020000Y-92450000D02*
X119020000Y-90550000D01*
X119020000Y-90550000D02*
X122380000Y-90550000D01*
X125800000Y-84650000D02*
X125800000Y-82750000D01*
X125800000Y-84650000D02*
X122600000Y-84650000D01*
X125800000Y-82750000D02*
X122600000Y-82750000D01*
X122600000Y-84650000D02*
X122600000Y-82750000D01*
X129782500Y-42992000D02*
X133142500Y-42992000D01*
X129782500Y-44892000D02*
X129782500Y-42992000D01*
X133142500Y-42992000D02*
X133142500Y-44892000D01*
X133142500Y-44892000D02*
X129782500Y-44892000D01*
X118880000Y-94650000D02*
X115520000Y-94650000D01*
X118880000Y-92750000D02*
X118880000Y-94650000D01*
X115520000Y-94650000D02*
X115520000Y-92750000D01*
X115520000Y-92750000D02*
X118880000Y-92750000D01*
X118880000Y-102450000D02*
X115520000Y-102450000D01*
X118880000Y-100550000D02*
X118880000Y-102450000D01*
X115520000Y-102450000D02*
X115520000Y-100550000D01*
X115520000Y-100550000D02*
X118880000Y-100550000D01*
X140320000Y-93250000D02*
X143680000Y-93250000D01*
X140320000Y-95150000D02*
X140320000Y-93250000D01*
X143680000Y-93250000D02*
X143680000Y-95150000D01*
X143680000Y-95150000D02*
X140320000Y-95150000D01*
X136820000Y-93250000D02*
X140180000Y-93250000D01*
X136820000Y-95150000D02*
X136820000Y-93250000D01*
X140180000Y-93250000D02*
X140180000Y-95150000D01*
X140180000Y-95150000D02*
X136820000Y-95150000D01*
X136820000Y-90750000D02*
X140180000Y-90750000D01*
X136820000Y-92650000D02*
X136820000Y-90750000D01*
X140180000Y-90750000D02*
X140180000Y-92650000D01*
X140180000Y-92650000D02*
X136820000Y-92650000D01*
X133180000Y-47178000D02*
X129820000Y-47178000D01*
X133180000Y-45278000D02*
X133180000Y-47178000D01*
X129820000Y-47178000D02*
X129820000Y-45278000D01*
X129820000Y-45278000D02*
X133180000Y-45278000D01*
X181480000Y-97650000D02*
X178120000Y-97650000D01*
X181480000Y-95750000D02*
X181480000Y-97650000D01*
X178120000Y-97650000D02*
X178120000Y-95750000D01*
X178120000Y-95750000D02*
X181480000Y-95750000D01*
X160220000Y-100050000D02*
X163580000Y-100050000D01*
X160220000Y-101950000D02*
X160220000Y-100050000D01*
X163580000Y-100050000D02*
X163580000Y-101950000D01*
X163580000Y-101950000D02*
X160220000Y-101950000D01*
X160220000Y-98050000D02*
X163580000Y-98050000D01*
X160220000Y-99950000D02*
X160220000Y-98050000D01*
X163580000Y-98050000D02*
X163580000Y-99950000D01*
X163580000Y-99950000D02*
X160220000Y-99950000D01*
X122380000Y-82450000D02*
X119020000Y-82450000D01*
X122380000Y-80550000D02*
X122380000Y-82450000D01*
X119020000Y-82450000D02*
X119020000Y-80550000D01*
X119020000Y-80550000D02*
X122380000Y-80550000D01*
X118880000Y-92450000D02*
X115520000Y-92450000D01*
X118880000Y-90550000D02*
X118880000Y-92450000D01*
X115520000Y-92450000D02*
X115520000Y-90550000D01*
X115520000Y-90550000D02*
X118880000Y-90550000D01*
X140320000Y-98250000D02*
X143680000Y-98250000D01*
X140320000Y-100150000D02*
X140320000Y-98250000D01*
X143680000Y-98250000D02*
X143680000Y-100150000D01*
X143680000Y-100150000D02*
X140320000Y-100150000D01*
X136820000Y-98250000D02*
X140180000Y-98250000D01*
X136820000Y-100150000D02*
X136820000Y-98250000D01*
X140180000Y-98250000D02*
X140180000Y-100150000D01*
X140180000Y-100150000D02*
X136820000Y-100150000D01*
X136820000Y-95750000D02*
X140180000Y-95750000D01*
X136820000Y-97650000D02*
X136820000Y-95750000D01*
X140180000Y-95750000D02*
X140180000Y-97650000D01*
X140180000Y-97650000D02*
X136820000Y-97650000D01*
X163220000Y-109950000D02*
X166580000Y-109950000D01*
X163220000Y-111850000D02*
X163220000Y-109950000D01*
X166580000Y-109950000D02*
X166580000Y-111850000D01*
X166580000Y-111850000D02*
X163220000Y-111850000D01*
X170080000Y-109850000D02*
X166720000Y-109850000D01*
X170080000Y-107950000D02*
X170080000Y-109850000D01*
X166720000Y-109850000D02*
X166720000Y-107950000D01*
X166720000Y-107950000D02*
X170080000Y-107950000D01*
X150050000Y-71680000D02*
X150050000Y-68320000D01*
X151950000Y-71680000D02*
X150050000Y-71680000D01*
X150050000Y-68320000D02*
X151950000Y-68320000D01*
X151950000Y-68320000D02*
X151950000Y-71680000D01*
X152150000Y-71680000D02*
X152150000Y-68320000D01*
X154050000Y-71680000D02*
X152150000Y-71680000D01*
X152150000Y-68320000D02*
X154050000Y-68320000D01*
X154050000Y-68320000D02*
X154050000Y-71680000D01*
X154750000Y-54280000D02*
X154750000Y-50920000D01*
X156650000Y-54280000D02*
X154750000Y-54280000D01*
X154750000Y-50920000D02*
X156650000Y-50920000D01*
X156650000Y-50920000D02*
X156650000Y-54280000D01*
X158750000Y-50920000D02*
X158750000Y-54280000D01*
X156850000Y-50920000D02*
X158750000Y-50920000D01*
X158750000Y-54280000D02*
X156850000Y-54280000D01*
X156850000Y-54280000D02*
X156850000Y-50920000D01*
X154950000Y-111980000D02*
X154950000Y-108620000D01*
X156850000Y-111980000D02*
X154950000Y-111980000D01*
X154950000Y-108620000D02*
X156850000Y-108620000D01*
X156850000Y-108620000D02*
X156850000Y-111980000D01*
X153080000Y-49750000D02*
X149720000Y-49750000D01*
X153080000Y-47850000D02*
X153080000Y-49750000D01*
X149720000Y-49750000D02*
X149720000Y-47850000D01*
X149720000Y-47850000D02*
X153080000Y-47850000D01*
X156680000Y-49750000D02*
X153320000Y-49750000D01*
X156680000Y-47850000D02*
X156680000Y-49750000D01*
X153320000Y-49750000D02*
X153320000Y-47850000D01*
X153320000Y-47850000D02*
X156680000Y-47850000D01*
X145200000Y-80100000D02*
X145200000Y-74700000D01*
X145200000Y-74700000D02*
X137800000Y-74700000D01*
X137800000Y-80100000D02*
X145200000Y-80100000D01*
X137800000Y-74700000D02*
X137800000Y-80100000D01*
X125800000Y-94650000D02*
X125800000Y-92750000D01*
X125800000Y-94650000D02*
X122600000Y-94650000D01*
X125800000Y-92750000D02*
X122600000Y-92750000D01*
X122600000Y-94650000D02*
X122600000Y-92750000D01*
X125800000Y-102450000D02*
X125800000Y-100550000D01*
X125800000Y-102450000D02*
X122600000Y-102450000D01*
X125800000Y-100550000D02*
X122600000Y-100550000D01*
X122600000Y-102450000D02*
X122600000Y-100550000D01*
X149880000Y-127850000D02*
X146520000Y-127850000D01*
X149880000Y-125950000D02*
X149880000Y-127850000D01*
X146520000Y-127850000D02*
X146520000Y-125950000D01*
X146520000Y-125950000D02*
X149880000Y-125950000D01*
X173050000Y-113320000D02*
X173050000Y-116680000D01*
X171150000Y-113320000D02*
X173050000Y-113320000D01*
X173050000Y-116680000D02*
X171150000Y-116680000D01*
X171150000Y-116680000D02*
X171150000Y-113320000D01*
X143020000Y-123700000D02*
X146380000Y-123700000D01*
X143020000Y-125600000D02*
X143020000Y-123700000D01*
X146380000Y-123700000D02*
X146380000Y-125600000D01*
X146380000Y-125600000D02*
X143020000Y-125600000D01*
X143020000Y-128200000D02*
X146380000Y-128200000D01*
X143020000Y-130100000D02*
X143020000Y-128200000D01*
X146380000Y-128200000D02*
X146380000Y-130100000D01*
X146380000Y-130100000D02*
X143020000Y-130100000D01*
X149880000Y-123350000D02*
X146520000Y-123350000D01*
X149880000Y-121450000D02*
X149880000Y-123350000D01*
X146520000Y-123350000D02*
X146520000Y-121450000D01*
X146520000Y-121450000D02*
X149880000Y-121450000D01*
X173250000Y-126680000D02*
X173250000Y-123320000D01*
X175150000Y-126680000D02*
X173250000Y-126680000D01*
X173250000Y-123320000D02*
X175150000Y-123320000D01*
X175150000Y-123320000D02*
X175150000Y-126680000D01*
X149880000Y-130100000D02*
X146520000Y-130100000D01*
X149880000Y-128200000D02*
X149880000Y-130100000D01*
X146520000Y-130100000D02*
X146520000Y-128200000D01*
X146520000Y-128200000D02*
X149880000Y-128200000D01*
X149880000Y-125600000D02*
X146520000Y-125600000D01*
X149880000Y-123700000D02*
X149880000Y-125600000D01*
X146520000Y-125600000D02*
X146520000Y-123700000D01*
X146520000Y-123700000D02*
X149880000Y-123700000D01*
X152620000Y-130450000D02*
X155980000Y-130450000D01*
X152620000Y-132350000D02*
X152620000Y-130450000D01*
X155980000Y-130450000D02*
X155980000Y-132350000D01*
X155980000Y-132350000D02*
X152620000Y-132350000D01*
X129850000Y-69020000D02*
X129850000Y-72380000D01*
X127950000Y-69020000D02*
X129850000Y-69020000D01*
X129850000Y-72380000D02*
X127950000Y-72380000D01*
X127950000Y-72380000D02*
X127950000Y-69020000D01*
X131850000Y-69020000D02*
X131850000Y-72380000D01*
X129950000Y-69020000D02*
X131850000Y-69020000D01*
X131850000Y-72380000D02*
X129950000Y-72380000D01*
X129950000Y-72380000D02*
X129950000Y-69020000D01*
X162300000Y-118850000D02*
X162300000Y-129350000D01*
X162300000Y-118850000D02*
X169700000Y-118850000D01*
X162300000Y-129350000D02*
X169700000Y-129350000D01*
X169700000Y-118850000D02*
X169700000Y-129350000D01*
X141000000Y-84150000D02*
X141000000Y-82250000D01*
X141000000Y-84150000D02*
X137800000Y-84150000D01*
X141000000Y-82250000D02*
X137800000Y-82250000D01*
X137800000Y-84150000D02*
X137800000Y-82250000D01*
X145200000Y-84150000D02*
X145200000Y-82250000D01*
X145200000Y-84150000D02*
X142000000Y-84150000D01*
X145200000Y-82250000D02*
X142000000Y-82250000D01*
X142000000Y-84150000D02*
X142000000Y-82250000D01*
X155980000Y-123350000D02*
X152620000Y-123350000D01*
X155980000Y-121450000D02*
X155980000Y-123350000D01*
X152620000Y-123350000D02*
X152620000Y-121450000D01*
X152620000Y-121450000D02*
X155980000Y-121450000D01*
X140320000Y-95750000D02*
X143680000Y-95750000D01*
X140320000Y-97650000D02*
X140320000Y-95750000D01*
X143680000Y-95750000D02*
X143680000Y-97650000D01*
X143680000Y-97650000D02*
X140320000Y-97650000D01*
X146680000Y-47700000D02*
X162980000Y-47700000D01*
X162980000Y-47700000D02*
X162980000Y-44100000D01*
X146680000Y-44100000D02*
X146680000Y-47700000D01*
X162980000Y-44100000D02*
X146680000Y-44100000D01*
X189250000Y-99820000D02*
X189250000Y-103180000D01*
X187350000Y-99820000D02*
X189250000Y-99820000D01*
X189250000Y-103180000D02*
X187350000Y-103180000D01*
X187350000Y-103180000D02*
X187350000Y-99820000D01*
X141000000Y-82150000D02*
X141000000Y-80250000D01*
X141000000Y-82150000D02*
X137800000Y-82150000D01*
X141000000Y-80250000D02*
X137800000Y-80250000D01*
X137800000Y-82150000D02*
X137800000Y-80250000D01*
X189250000Y-108220000D02*
X189250000Y-111580000D01*
X187350000Y-108220000D02*
X189250000Y-108220000D01*
X189250000Y-111580000D02*
X187350000Y-111580000D01*
X187350000Y-111580000D02*
X187350000Y-108220000D01*
X187150000Y-108220000D02*
X187150000Y-111580000D01*
X185250000Y-108220000D02*
X187150000Y-108220000D01*
X187150000Y-111580000D02*
X185250000Y-111580000D01*
X185250000Y-111580000D02*
X185250000Y-108220000D01*
X147180000Y-100150000D02*
X143820000Y-100150000D01*
X147180000Y-98250000D02*
X147180000Y-100150000D01*
X143820000Y-100150000D02*
X143820000Y-98250000D01*
X143820000Y-98250000D02*
X147180000Y-98250000D01*
X147180000Y-97650000D02*
X143820000Y-97650000D01*
X147180000Y-95750000D02*
X147180000Y-97650000D01*
X143820000Y-97650000D02*
X143820000Y-95750000D01*
X143820000Y-95750000D02*
X147180000Y-95750000D01*
X125800000Y-92450000D02*
X125800000Y-90550000D01*
X125800000Y-92450000D02*
X122600000Y-92450000D01*
X125800000Y-90550000D02*
X122600000Y-90550000D01*
X122600000Y-92450000D02*
X122600000Y-90550000D01*
X193500000Y-109950000D02*
X193500000Y-108050000D01*
X193500000Y-109950000D02*
X190300000Y-109950000D01*
X193500000Y-108050000D02*
X190300000Y-108050000D01*
X190300000Y-109950000D02*
X190300000Y-108050000D01*
X187480000Y-117750000D02*
X184120000Y-117750000D01*
X187480000Y-115850000D02*
X187480000Y-117750000D01*
X184120000Y-117750000D02*
X184120000Y-115850000D01*
X184120000Y-115850000D02*
X187480000Y-115850000D01*
X187480000Y-126050000D02*
X184120000Y-126050000D01*
X187480000Y-124150000D02*
X187480000Y-126050000D01*
X184120000Y-126050000D02*
X184120000Y-124150000D01*
X184120000Y-124150000D02*
X187480000Y-124150000D01*
X167220000Y-99150000D02*
X170580000Y-99150000D01*
X167220000Y-101050000D02*
X167220000Y-99150000D01*
X170580000Y-99150000D02*
X170580000Y-101050000D01*
X170580000Y-101050000D02*
X167220000Y-101050000D01*
X174017500Y-101050000D02*
X170657500Y-101050000D01*
X174017500Y-99150000D02*
X174017500Y-101050000D01*
X170657500Y-101050000D02*
X170657500Y-99150000D01*
X170657500Y-99150000D02*
X174017500Y-99150000D01*
X147950000Y-71680000D02*
X147950000Y-68320000D01*
X149850000Y-71680000D02*
X147950000Y-71680000D01*
X147950000Y-68320000D02*
X149850000Y-68320000D01*
X149850000Y-68320000D02*
X149850000Y-71680000D01*
X145850000Y-71680000D02*
X145850000Y-68320000D01*
X147750000Y-71680000D02*
X145850000Y-71680000D01*
X145850000Y-68320000D02*
X147750000Y-68320000D01*
X147750000Y-68320000D02*
X147750000Y-71680000D01*
X158950000Y-54280000D02*
X158950000Y-50920000D01*
X160850000Y-54280000D02*
X158950000Y-54280000D01*
X158950000Y-50920000D02*
X160850000Y-50920000D01*
X160850000Y-50920000D02*
X160850000Y-54280000D01*
X162950000Y-50920000D02*
X162950000Y-54280000D01*
X161050000Y-50920000D02*
X162950000Y-50920000D01*
X162950000Y-54280000D02*
X161050000Y-54280000D01*
X161050000Y-54280000D02*
X161050000Y-50920000D01*
X185250000Y-103180000D02*
X185250000Y-99820000D01*
X187150000Y-103180000D02*
X185250000Y-103180000D01*
X185250000Y-99820000D02*
X187150000Y-99820000D01*
X187150000Y-99820000D02*
X187150000Y-103180000D01*
X118500000Y-94900000D02*
X118500000Y-100300000D01*
X118500000Y-100300000D02*
X125900000Y-100300000D01*
X125900000Y-94900000D02*
X118500000Y-94900000D01*
X125900000Y-100300000D02*
X125900000Y-94900000D01*
X118500000Y-84900000D02*
X118500000Y-90300000D01*
X118500000Y-90300000D02*
X125900000Y-90300000D01*
X125900000Y-84900000D02*
X118500000Y-84900000D01*
X125900000Y-90300000D02*
X125900000Y-84900000D01*
X156030000Y-102000000D02*
X156030000Y-96600000D01*
X156030000Y-102000000D02*
X148570000Y-102000000D01*
X156030000Y-96600000D02*
X148570000Y-96600000D01*
X148570000Y-102000000D02*
X148570000Y-96600000D01*
X145200000Y-89700000D02*
X145200000Y-84300000D01*
X145200000Y-84300000D02*
X137800000Y-84300000D01*
X137800000Y-89700000D02*
X145200000Y-89700000D01*
X137800000Y-84300000D02*
X137800000Y-89700000D01*
X183000000Y-47000000D02*
X190000000Y-47000000D01*
X183000000Y-50500000D02*
X183000000Y-47000000D01*
X190000000Y-47000000D02*
X190000000Y-50500000D01*
X190000000Y-50500000D02*
X183000000Y-50500000D01*
X182850000Y-50750000D02*
X190150000Y-50750000D01*
X182850000Y-55250000D02*
X182850000Y-50750000D01*
X190150000Y-50750000D02*
X190150000Y-55250000D01*
X190150000Y-55250000D02*
X182850000Y-55250000D01*
D11*
X176400000Y-98900000D02*
X167200000Y-98900000D01*
X176400000Y-89600000D02*
X176400000Y-98900000D01*
X167200000Y-98900000D02*
X167200000Y-89600000D01*
X167200000Y-89600000D02*
X176400000Y-89600000D01*
D10*
X182320000Y-52400000D02*
X182320000Y-41100000D01*
X182320000Y-41100000D02*
X165680000Y-41100000D01*
X165680000Y-52400000D02*
X182320000Y-52400000D01*
X165680000Y-41100000D02*
X165680000Y-52400000D01*
X148620000Y-94550000D02*
X151980000Y-94550000D01*
X148620000Y-96450000D02*
X148620000Y-94550000D01*
X151980000Y-94550000D02*
X151980000Y-96450000D01*
X151980000Y-96450000D02*
X148620000Y-96450000D01*
X155480000Y-96450000D02*
X152120000Y-96450000D01*
X155480000Y-94550000D02*
X155480000Y-96450000D01*
X152120000Y-96450000D02*
X152120000Y-94550000D01*
X152120000Y-94550000D02*
X155480000Y-94550000D01*
X148620000Y-86050000D02*
X151980000Y-86050000D01*
X148620000Y-87950000D02*
X148620000Y-86050000D01*
X151980000Y-86050000D02*
X151980000Y-87950000D01*
X151980000Y-87950000D02*
X148620000Y-87950000D01*
X155480000Y-87950000D02*
X152120000Y-87950000D01*
X155480000Y-86050000D02*
X155480000Y-87950000D01*
X152120000Y-87950000D02*
X152120000Y-86050000D01*
X152120000Y-86050000D02*
X155480000Y-86050000D01*
X145200000Y-82150000D02*
X145200000Y-80250000D01*
X145200000Y-82150000D02*
X142000000Y-82150000D01*
X145200000Y-80250000D02*
X142000000Y-80250000D01*
X142000000Y-82150000D02*
X142000000Y-80250000D01*
X191400000Y-125050000D02*
X202200000Y-125050000D01*
X202200000Y-125050000D02*
X202200000Y-114350000D01*
X191400000Y-114350000D02*
X191400000Y-125050000D01*
X202200000Y-114350000D02*
X191400000Y-114350000D01*
X200500000Y-52000000D02*
X210500000Y-52000000D01*
X210500000Y-52000000D02*
X210500000Y-41000000D01*
X200500000Y-41000000D02*
X200500000Y-52000000D01*
X210500000Y-41000000D02*
X200500000Y-41000000D01*
X154850000Y-108600000D02*
X154850000Y-112000000D01*
X151350000Y-108600000D02*
X154850000Y-108600000D01*
X154850000Y-112000000D02*
X151350000Y-112000000D01*
X151350000Y-112000000D02*
X151350000Y-108600000D01*
X147650000Y-108600000D02*
X147650000Y-112000000D01*
X144150000Y-108600000D02*
X147650000Y-108600000D01*
X147650000Y-112000000D02*
X144150000Y-112000000D01*
X144150000Y-112000000D02*
X144150000Y-108600000D01*
X151250000Y-108600000D02*
X151250000Y-112000000D01*
X147750000Y-108600000D02*
X151250000Y-108600000D01*
X151250000Y-112000000D02*
X147750000Y-112000000D01*
X147750000Y-112000000D02*
X147750000Y-108600000D01*
X200055000Y-83200000D02*
X200055000Y-69450000D01*
X200055000Y-69450000D02*
X196455000Y-69450000D01*
X196455000Y-83200000D02*
X200055000Y-83200000D01*
X196455000Y-69450000D02*
X196455000Y-83200000D01*
X181480000Y-94950000D02*
X178120000Y-94950000D01*
X181480000Y-93050000D02*
X181480000Y-94950000D01*
X178120000Y-94950000D02*
X178120000Y-93050000D01*
X178120000Y-93050000D02*
X181480000Y-93050000D01*
X178120000Y-90250000D02*
X181480000Y-90250000D01*
X178120000Y-92150000D02*
X178120000Y-90250000D01*
X181480000Y-90250000D02*
X181480000Y-92150000D01*
X181480000Y-92150000D02*
X178120000Y-92150000D01*
X183859000Y-40260000D02*
X188759000Y-40260000D01*
X183859000Y-43560000D02*
X183859000Y-40260000D01*
X188759000Y-40260000D02*
X188759000Y-43560000D01*
X188759000Y-43560000D02*
X183859000Y-43560000D01*
X195250000Y-55650000D02*
X200450000Y-55650000D01*
X195250000Y-55650000D02*
X195250000Y-39650000D01*
X200450000Y-55650000D02*
X200450000Y-39650000D01*
X195250000Y-39650000D02*
X200450000Y-39650000D01*
X190620000Y-50550000D02*
X193980000Y-50550000D01*
X190620000Y-52450000D02*
X190620000Y-50550000D01*
X193980000Y-50550000D02*
X193980000Y-52450000D01*
X193980000Y-52450000D02*
X190620000Y-52450000D01*
X185518000Y-43881000D02*
X188878000Y-43881000D01*
X185518000Y-45781000D02*
X185518000Y-43881000D01*
X188878000Y-43881000D02*
X188878000Y-45781000D01*
X188878000Y-45781000D02*
X185518000Y-45781000D01*
X159900000Y-99400000D02*
X159900000Y-90750000D01*
X159900000Y-90750000D02*
X156300000Y-90750000D01*
X156300000Y-99400000D02*
X159900000Y-99400000D01*
X156300000Y-90750000D02*
X156300000Y-99400000D01*
X179100000Y-111600000D02*
X179100000Y-120250000D01*
X179100000Y-120250000D02*
X182700000Y-120250000D01*
X182700000Y-111600000D02*
X179100000Y-111600000D01*
X182700000Y-120250000D02*
X182700000Y-111600000D01*
X175400000Y-111600000D02*
X175400000Y-117750000D01*
X175400000Y-117750000D02*
X179000000Y-117750000D01*
X179000000Y-111600000D02*
X175400000Y-111600000D01*
X179000000Y-117750000D02*
X179000000Y-111600000D01*
X175400000Y-121600000D02*
X175400000Y-127750000D01*
X175400000Y-127750000D02*
X179000000Y-127750000D01*
X179000000Y-121600000D02*
X175400000Y-121600000D01*
X179000000Y-127750000D02*
X179000000Y-121600000D01*
X173250000Y-116680000D02*
X173250000Y-113320000D01*
X175150000Y-116680000D02*
X173250000Y-116680000D01*
X173250000Y-113320000D02*
X175150000Y-113320000D01*
X175150000Y-113320000D02*
X175150000Y-116680000D01*
X129820000Y-47564000D02*
X133180000Y-47564000D01*
X129820000Y-49464000D02*
X129820000Y-47564000D01*
X133180000Y-47564000D02*
X133180000Y-49464000D01*
X133180000Y-49464000D02*
X129820000Y-49464000D01*
X149880000Y-132350000D02*
X146520000Y-132350000D01*
X149880000Y-130450000D02*
X149880000Y-132350000D01*
X146520000Y-132350000D02*
X146520000Y-130450000D01*
X146520000Y-130450000D02*
X149880000Y-130450000D01*
X127090000Y-74390000D02*
X136450000Y-74390000D01*
X127090000Y-133350000D02*
X127090000Y-74390000D01*
X136450000Y-74390000D02*
X136450000Y-133350000D01*
X136450000Y-133350000D02*
X127090000Y-133350000D01*
X179100000Y-121600000D02*
X179100000Y-130250000D01*
X179100000Y-130250000D02*
X182700000Y-130250000D01*
X182700000Y-121600000D02*
X179100000Y-121600000D01*
X182700000Y-130250000D02*
X182700000Y-121600000D01*
X156030000Y-93500000D02*
X156030000Y-88100000D01*
X156030000Y-93500000D02*
X148570000Y-93500000D01*
X156030000Y-88100000D02*
X148570000Y-88100000D01*
X148570000Y-93500000D02*
X148570000Y-88100000D01*
X160220000Y-89550000D02*
X163580000Y-89550000D01*
X160220000Y-91450000D02*
X160220000Y-89550000D01*
X163580000Y-89550000D02*
X163580000Y-91450000D01*
X163580000Y-91450000D02*
X160220000Y-91450000D01*
X160220000Y-91550000D02*
X163580000Y-91550000D01*
X160220000Y-93450000D02*
X160220000Y-91550000D01*
X163580000Y-91550000D02*
X163580000Y-93450000D01*
X163580000Y-93450000D02*
X160220000Y-93450000D01*
X133180000Y-42606000D02*
X129820000Y-42606000D01*
X133180000Y-40706000D02*
X133180000Y-42606000D01*
X129820000Y-42606000D02*
X129820000Y-40706000D01*
X129820000Y-40706000D02*
X133180000Y-40706000D01*
X147280000Y-119650000D02*
X143920000Y-119650000D01*
X147280000Y-117750000D02*
X147280000Y-119650000D01*
X143920000Y-119650000D02*
X143920000Y-117750000D01*
X143920000Y-117750000D02*
X147280000Y-117750000D01*
X140320000Y-90750000D02*
X143680000Y-90750000D01*
X140320000Y-92650000D02*
X140320000Y-90750000D01*
X143680000Y-90750000D02*
X143680000Y-92650000D01*
X143680000Y-92650000D02*
X140320000Y-92650000D01*
X166580000Y-109850000D02*
X163220000Y-109850000D01*
X166580000Y-107950000D02*
X166580000Y-109850000D01*
X163220000Y-109850000D02*
X163220000Y-107950000D01*
X163220000Y-107950000D02*
X166580000Y-107950000D01*
X126120000Y-47564000D02*
X129480000Y-47564000D01*
X126120000Y-49464000D02*
X126120000Y-47564000D01*
X129480000Y-47564000D02*
X129480000Y-49464000D01*
X129480000Y-49464000D02*
X126120000Y-49464000D01*
X126120000Y-45278000D02*
X129480000Y-45278000D01*
X126120000Y-47178000D02*
X126120000Y-45278000D01*
X129480000Y-45278000D02*
X129480000Y-47178000D01*
X129480000Y-47178000D02*
X126120000Y-47178000D01*
X126120000Y-40706000D02*
X129480000Y-40706000D01*
X126120000Y-42606000D02*
X126120000Y-40706000D01*
X129480000Y-40706000D02*
X129480000Y-42606000D01*
X129480000Y-42606000D02*
X126120000Y-42606000D01*
X126120000Y-42992000D02*
X129480000Y-42992000D01*
X126120000Y-44892000D02*
X126120000Y-42992000D01*
X129480000Y-42992000D02*
X129480000Y-44892000D01*
X129480000Y-44892000D02*
X126120000Y-44892000D01*
X128380000Y-65930000D02*
X149200000Y-65930000D01*
X128380000Y-65930000D02*
X128380000Y-50190000D01*
X149200000Y-50190000D02*
X149200000Y-65930000D01*
X149200000Y-50190000D02*
X128380000Y-50190000D01*
X156950000Y-111980000D02*
X156950000Y-108620000D01*
X158850000Y-111980000D02*
X156950000Y-111980000D01*
X156950000Y-108620000D02*
X158850000Y-108620000D01*
X158850000Y-108620000D02*
X158850000Y-111980000D01*
X191620000Y-111950000D02*
X194980000Y-111950000D01*
X191620000Y-113850000D02*
X191620000Y-111950000D01*
X194980000Y-111950000D02*
X194980000Y-113850000D01*
X194980000Y-113850000D02*
X191620000Y-113850000D01*
X185982500Y-93050000D02*
X189342500Y-93050000D01*
X185982500Y-94950000D02*
X185982500Y-93050000D01*
X189342500Y-93050000D02*
X189342500Y-94950000D01*
X189342500Y-94950000D02*
X185982500Y-94950000D01*
X174075000Y-99150000D02*
X177775000Y-99150000D01*
X174075000Y-101050000D02*
X174075000Y-99150000D01*
X177775000Y-99150000D02*
X177775000Y-101050000D01*
X177775000Y-101050000D02*
X174075000Y-101050000D01*
X119612000Y-110976000D02*
X119612000Y-124726000D01*
X119612000Y-124726000D02*
X123212000Y-124726000D01*
X123212000Y-110976000D02*
X119612000Y-110976000D01*
X123212000Y-124726000D02*
X123212000Y-110976000D01*
X176135000Y-62880000D02*
X184785000Y-62880000D01*
X184785000Y-62880000D02*
X184785000Y-59280000D01*
X176135000Y-59280000D02*
X176135000Y-62880000D01*
X184785000Y-59280000D02*
X176135000Y-59280000D01*
X200055000Y-70500000D02*
X200055000Y-59300000D01*
X200055000Y-59300000D02*
X196455000Y-59300000D01*
X196455000Y-70500000D02*
X200055000Y-70500000D01*
X196455000Y-59300000D02*
X196455000Y-70500000D01*
X183755000Y-62880000D02*
X197505000Y-62880000D01*
X197505000Y-62880000D02*
X197505000Y-59280000D01*
X183755000Y-59280000D02*
X183755000Y-62880000D01*
X197505000Y-59280000D02*
X183755000Y-59280000D01*
X161655000Y-63620000D02*
G75*
G03*
X161655000Y-63620000I-1500000J0D01*
G01*
X164195000Y-63620000D02*
G75*
G03*
X164195000Y-63620000I-1500000J0D01*
G01*
X166735000Y-63620000D02*
G75*
G03*
X166735000Y-63620000I-1500000J0D01*
G01*
X169275000Y-63620000D02*
G75*
G03*
X169275000Y-63620000I-1500000J0D01*
G01*
X171815000Y-63620000D02*
G75*
G03*
X171815000Y-63620000I-1500000J0D01*
G01*
X174355000Y-63620000D02*
G75*
G03*
X174355000Y-63620000I-1500000J0D01*
G01*
X176895000Y-63620000D02*
G75*
G03*
X176895000Y-63620000I-1500000J0D01*
G01*
X179435000Y-63620000D02*
G75*
G03*
X179435000Y-63620000I-1500000J0D01*
G01*
X181975000Y-63620000D02*
G75*
G03*
X181975000Y-63620000I-1500000J0D01*
G01*
X184515000Y-63620000D02*
G75*
G03*
X184515000Y-63620000I-1500000J0D01*
G01*
X187055000Y-63620000D02*
G75*
G03*
X187055000Y-63620000I-1500000J0D01*
G01*
X189595000Y-63620000D02*
G75*
G03*
X189595000Y-63620000I-1500000J0D01*
G01*
X192135000Y-63620000D02*
G75*
G03*
X192135000Y-63620000I-1500000J0D01*
G01*
X194675000Y-63620000D02*
G75*
G03*
X194675000Y-63620000I-1500000J0D01*
G01*
X197215000Y-63620000D02*
G75*
G03*
X197215000Y-63620000I-1500000J0D01*
G01*
X161655000Y-66160000D02*
G75*
G03*
X161655000Y-66160000I-1500000J0D01*
G01*
X164195000Y-66160000D02*
G75*
G03*
X164195000Y-66160000I-1500000J0D01*
G01*
X166735000Y-66160000D02*
G75*
G03*
X166735000Y-66160000I-1500000J0D01*
G01*
X169275000Y-66160000D02*
G75*
G03*
X169275000Y-66160000I-1500000J0D01*
G01*
X171815000Y-66160000D02*
G75*
G03*
X171815000Y-66160000I-1500000J0D01*
G01*
X174355000Y-66160000D02*
G75*
G03*
X174355000Y-66160000I-1500000J0D01*
G01*
X176895000Y-66160000D02*
G75*
G03*
X176895000Y-66160000I-1500000J0D01*
G01*
X179435000Y-66160000D02*
G75*
G03*
X179435000Y-66160000I-1500000J0D01*
G01*
X181975000Y-66160000D02*
G75*
G03*
X181975000Y-66160000I-1500000J0D01*
G01*
X184515000Y-66160000D02*
G75*
G03*
X184515000Y-66160000I-1500000J0D01*
G01*
X187055000Y-66160000D02*
G75*
G03*
X187055000Y-66160000I-1500000J0D01*
G01*
X189595000Y-66160000D02*
G75*
G03*
X189595000Y-66160000I-1500000J0D01*
G01*
X192135000Y-66160000D02*
G75*
G03*
X192135000Y-66160000I-1500000J0D01*
G01*
X194675000Y-66160000D02*
G75*
G03*
X194675000Y-66160000I-1500000J0D01*
G01*
X197215000Y-66160000D02*
G75*
G03*
X197215000Y-66160000I-1500000J0D01*
G01*
X161655000Y-68700000D02*
G75*
G03*
X161655000Y-68700000I-1500000J0D01*
G01*
X164195000Y-68700000D02*
G75*
G03*
X164195000Y-68700000I-1500000J0D01*
G01*
X166735000Y-68700000D02*
G75*
G03*
X166735000Y-68700000I-1500000J0D01*
G01*
X169275000Y-68700000D02*
G75*
G03*
X169275000Y-68700000I-1500000J0D01*
G01*
X171815000Y-68700000D02*
G75*
G03*
X171815000Y-68700000I-1500000J0D01*
G01*
X174355000Y-68700000D02*
G75*
G03*
X174355000Y-68700000I-1500000J0D01*
G01*
X176895000Y-68700000D02*
G75*
G03*
X176895000Y-68700000I-1500000J0D01*
G01*
X179435000Y-68700000D02*
G75*
G03*
X179435000Y-68700000I-1500000J0D01*
G01*
X181975000Y-68700000D02*
G75*
G03*
X181975000Y-68700000I-1500000J0D01*
G01*
X184515000Y-68700000D02*
G75*
G03*
X184515000Y-68700000I-1500000J0D01*
G01*
X187055000Y-68700000D02*
G75*
G03*
X187055000Y-68700000I-1500000J0D01*
G01*
X189595000Y-68700000D02*
G75*
G03*
X189595000Y-68700000I-1500000J0D01*
G01*
X192135000Y-68700000D02*
G75*
G03*
X192135000Y-68700000I-1500000J0D01*
G01*
X194675000Y-68700000D02*
G75*
G03*
X194675000Y-68700000I-1500000J0D01*
G01*
X197215000Y-68700000D02*
G75*
G03*
X197215000Y-68700000I-1500000J0D01*
G01*
X161655000Y-71240000D02*
G75*
G03*
X161655000Y-71240000I-1500000J0D01*
G01*
X164195000Y-71240000D02*
G75*
G03*
X164195000Y-71240000I-1500000J0D01*
G01*
X166735000Y-71240000D02*
G75*
G03*
X166735000Y-71240000I-1500000J0D01*
G01*
X169275000Y-71240000D02*
G75*
G03*
X169275000Y-71240000I-1500000J0D01*
G01*
X171815000Y-71240000D02*
G75*
G03*
X171815000Y-71240000I-1500000J0D01*
G01*
X174355000Y-71240000D02*
G75*
G03*
X174355000Y-71240000I-1500000J0D01*
G01*
X176895000Y-71240000D02*
G75*
G03*
X176895000Y-71240000I-1500000J0D01*
G01*
X179435000Y-71240000D02*
G75*
G03*
X179435000Y-71240000I-1500000J0D01*
G01*
X181975000Y-71240000D02*
G75*
G03*
X181975000Y-71240000I-1500000J0D01*
G01*
X184515000Y-71240000D02*
G75*
G03*
X184515000Y-71240000I-1500000J0D01*
G01*
X187055000Y-71240000D02*
G75*
G03*
X187055000Y-71240000I-1500000J0D01*
G01*
X189595000Y-71240000D02*
G75*
G03*
X189595000Y-71240000I-1500000J0D01*
G01*
X192135000Y-71240000D02*
G75*
G03*
X192135000Y-71240000I-1500000J0D01*
G01*
X194675000Y-71240000D02*
G75*
G03*
X194675000Y-71240000I-1500000J0D01*
G01*
X197215000Y-71240000D02*
G75*
G03*
X197215000Y-71240000I-1500000J0D01*
G01*
X161655000Y-73780000D02*
G75*
G03*
X161655000Y-73780000I-1500000J0D01*
G01*
X164195000Y-73780000D02*
G75*
G03*
X164195000Y-73780000I-1500000J0D01*
G01*
X166735000Y-73780000D02*
G75*
G03*
X166735000Y-73780000I-1500000J0D01*
G01*
X169275000Y-73780000D02*
G75*
G03*
X169275000Y-73780000I-1500000J0D01*
G01*
X171815000Y-73780000D02*
G75*
G03*
X171815000Y-73780000I-1500000J0D01*
G01*
X174355000Y-73780000D02*
G75*
G03*
X174355000Y-73780000I-1500000J0D01*
G01*
X176895000Y-73780000D02*
G75*
G03*
X176895000Y-73780000I-1500000J0D01*
G01*
X179435000Y-73780000D02*
G75*
G03*
X179435000Y-73780000I-1500000J0D01*
G01*
X181975000Y-73780000D02*
G75*
G03*
X181975000Y-73780000I-1500000J0D01*
G01*
X184515000Y-73780000D02*
G75*
G03*
X184515000Y-73780000I-1500000J0D01*
G01*
X187055000Y-73780000D02*
G75*
G03*
X187055000Y-73780000I-1500000J0D01*
G01*
X189595000Y-73780000D02*
G75*
G03*
X189595000Y-73780000I-1500000J0D01*
G01*
X192135000Y-73780000D02*
G75*
G03*
X192135000Y-73780000I-1500000J0D01*
G01*
X194675000Y-73780000D02*
G75*
G03*
X194675000Y-73780000I-1500000J0D01*
G01*
X197215000Y-73780000D02*
G75*
G03*
X197215000Y-73780000I-1500000J0D01*
G01*
X161655000Y-76320000D02*
G75*
G03*
X161655000Y-76320000I-1500000J0D01*
G01*
X164195000Y-76320000D02*
G75*
G03*
X164195000Y-76320000I-1500000J0D01*
G01*
X166735000Y-76320000D02*
G75*
G03*
X166735000Y-76320000I-1500000J0D01*
G01*
X169275000Y-76320000D02*
G75*
G03*
X169275000Y-76320000I-1500000J0D01*
G01*
X171815000Y-76320000D02*
G75*
G03*
X171815000Y-76320000I-1500000J0D01*
G01*
X174355000Y-76320000D02*
G75*
G03*
X174355000Y-76320000I-1500000J0D01*
G01*
X176895000Y-76320000D02*
G75*
G03*
X176895000Y-76320000I-1500000J0D01*
G01*
X179435000Y-76320000D02*
G75*
G03*
X179435000Y-76320000I-1500000J0D01*
G01*
X181975000Y-76320000D02*
G75*
G03*
X181975000Y-76320000I-1500000J0D01*
G01*
X184515000Y-76320000D02*
G75*
G03*
X184515000Y-76320000I-1500000J0D01*
G01*
X187055000Y-76320000D02*
G75*
G03*
X187055000Y-76320000I-1500000J0D01*
G01*
X189595000Y-76320000D02*
G75*
G03*
X189595000Y-76320000I-1500000J0D01*
G01*
X192135000Y-76320000D02*
G75*
G03*
X192135000Y-76320000I-1500000J0D01*
G01*
X194675000Y-76320000D02*
G75*
G03*
X194675000Y-76320000I-1500000J0D01*
G01*
X197215000Y-76320000D02*
G75*
G03*
X197215000Y-76320000I-1500000J0D01*
G01*
X161655000Y-78860000D02*
G75*
G03*
X161655000Y-78860000I-1500000J0D01*
G01*
X164195000Y-78860000D02*
G75*
G03*
X164195000Y-78860000I-1500000J0D01*
G01*
X166735000Y-78860000D02*
G75*
G03*
X166735000Y-78860000I-1500000J0D01*
G01*
X169275000Y-78860000D02*
G75*
G03*
X169275000Y-78860000I-1500000J0D01*
G01*
X171815000Y-78860000D02*
G75*
G03*
X171815000Y-78860000I-1500000J0D01*
G01*
X174355000Y-78860000D02*
G75*
G03*
X174355000Y-78860000I-1500000J0D01*
G01*
X176895000Y-78860000D02*
G75*
G03*
X176895000Y-78860000I-1500000J0D01*
G01*
X179435000Y-78860000D02*
G75*
G03*
X179435000Y-78860000I-1500000J0D01*
G01*
X181975000Y-78860000D02*
G75*
G03*
X181975000Y-78860000I-1500000J0D01*
G01*
X184515000Y-78860000D02*
G75*
G03*
X184515000Y-78860000I-1500000J0D01*
G01*
X187055000Y-78860000D02*
G75*
G03*
X187055000Y-78860000I-1500000J0D01*
G01*
X189595000Y-78860000D02*
G75*
G03*
X189595000Y-78860000I-1500000J0D01*
G01*
X192135000Y-78860000D02*
G75*
G03*
X192135000Y-78860000I-1500000J0D01*
G01*
X194675000Y-78860000D02*
G75*
G03*
X194675000Y-78860000I-1500000J0D01*
G01*
X197215000Y-78860000D02*
G75*
G03*
X197215000Y-78860000I-1500000J0D01*
G01*
X161655000Y-81400000D02*
G75*
G03*
X161655000Y-81400000I-1500000J0D01*
G01*
X164195000Y-81400000D02*
G75*
G03*
X164195000Y-81400000I-1500000J0D01*
G01*
X166735000Y-81400000D02*
G75*
G03*
X166735000Y-81400000I-1500000J0D01*
G01*
X169275000Y-81400000D02*
G75*
G03*
X169275000Y-81400000I-1500000J0D01*
G01*
X171815000Y-81400000D02*
G75*
G03*
X171815000Y-81400000I-1500000J0D01*
G01*
X174355000Y-81400000D02*
G75*
G03*
X174355000Y-81400000I-1500000J0D01*
G01*
X176895000Y-81400000D02*
G75*
G03*
X176895000Y-81400000I-1500000J0D01*
G01*
X179435000Y-81400000D02*
G75*
G03*
X179435000Y-81400000I-1500000J0D01*
G01*
X181975000Y-81400000D02*
G75*
G03*
X181975000Y-81400000I-1500000J0D01*
G01*
X184515000Y-81400000D02*
G75*
G03*
X184515000Y-81400000I-1500000J0D01*
G01*
X187055000Y-81400000D02*
G75*
G03*
X187055000Y-81400000I-1500000J0D01*
G01*
X189595000Y-81400000D02*
G75*
G03*
X189595000Y-81400000I-1500000J0D01*
G01*
X192135000Y-81400000D02*
G75*
G03*
X192135000Y-81400000I-1500000J0D01*
G01*
X194675000Y-81400000D02*
G75*
G03*
X194675000Y-81400000I-1500000J0D01*
G01*
X197215000Y-81400000D02*
G75*
G03*
X197215000Y-81400000I-1500000J0D01*
G01*
X161655000Y-83940000D02*
G75*
G03*
X161655000Y-83940000I-1500000J0D01*
G01*
X164195000Y-83940000D02*
G75*
G03*
X164195000Y-83940000I-1500000J0D01*
G01*
X166735000Y-83940000D02*
G75*
G03*
X166735000Y-83940000I-1500000J0D01*
G01*
X169275000Y-83940000D02*
G75*
G03*
X169275000Y-83940000I-1500000J0D01*
G01*
X171815000Y-83940000D02*
G75*
G03*
X171815000Y-83940000I-1500000J0D01*
G01*
X174355000Y-83940000D02*
G75*
G03*
X174355000Y-83940000I-1500000J0D01*
G01*
X176895000Y-83940000D02*
G75*
G03*
X176895000Y-83940000I-1500000J0D01*
G01*
X179435000Y-83940000D02*
G75*
G03*
X179435000Y-83940000I-1500000J0D01*
G01*
X181975000Y-83940000D02*
G75*
G03*
X181975000Y-83940000I-1500000J0D01*
G01*
X184515000Y-83940000D02*
G75*
G03*
X184515000Y-83940000I-1500000J0D01*
G01*
X187055000Y-83940000D02*
G75*
G03*
X187055000Y-83940000I-1500000J0D01*
G01*
X189595000Y-83940000D02*
G75*
G03*
X189595000Y-83940000I-1500000J0D01*
G01*
X192135000Y-83940000D02*
G75*
G03*
X192135000Y-83940000I-1500000J0D01*
G01*
X194675000Y-83940000D02*
G75*
G03*
X194675000Y-83940000I-1500000J0D01*
G01*
X197215000Y-83940000D02*
G75*
G03*
X197215000Y-83940000I-1500000J0D01*
G01*
X161655000Y-86480000D02*
G75*
G03*
X161655000Y-86480000I-1500000J0D01*
G01*
X164195000Y-86480000D02*
G75*
G03*
X164195000Y-86480000I-1500000J0D01*
G01*
X166735000Y-86480000D02*
G75*
G03*
X166735000Y-86480000I-1500000J0D01*
G01*
X169275000Y-86480000D02*
G75*
G03*
X169275000Y-86480000I-1500000J0D01*
G01*
X171815000Y-86480000D02*
G75*
G03*
X171815000Y-86480000I-1500000J0D01*
G01*
X174355000Y-86480000D02*
G75*
G03*
X174355000Y-86480000I-1500000J0D01*
G01*
X176895000Y-86480000D02*
G75*
G03*
X176895000Y-86480000I-1500000J0D01*
G01*
X179435000Y-86480000D02*
G75*
G03*
X179435000Y-86480000I-1500000J0D01*
G01*
X181975000Y-86480000D02*
G75*
G03*
X181975000Y-86480000I-1500000J0D01*
G01*
X184515000Y-86480000D02*
G75*
G03*
X184515000Y-86480000I-1500000J0D01*
G01*
X187055000Y-86480000D02*
G75*
G03*
X187055000Y-86480000I-1500000J0D01*
G01*
X189595000Y-86480000D02*
G75*
G03*
X189595000Y-86480000I-1500000J0D01*
G01*
X192135000Y-86480000D02*
G75*
G03*
X192135000Y-86480000I-1500000J0D01*
G01*
X194675000Y-86480000D02*
G75*
G03*
X194675000Y-86480000I-1500000J0D01*
G01*
X197215000Y-86480000D02*
G75*
G03*
X197215000Y-86480000I-1500000J0D01*
G01*
X171457500Y-107950000D02*
X174817500Y-107950000D01*
X171457500Y-109850000D02*
X171457500Y-107950000D01*
X174817500Y-107950000D02*
X174817500Y-109850000D01*
X174817500Y-109850000D02*
X171457500Y-109850000D01*
X154842000Y-117520000D02*
X148942000Y-117520000D01*
X154842000Y-113620000D02*
X154842000Y-117520000D01*
X148942000Y-117520000D02*
X148942000Y-113620000D01*
X148942000Y-113620000D02*
X154842000Y-113620000D01*
X184756000Y-88220000D02*
X190656000Y-88220000D01*
X184756000Y-92120000D02*
X184756000Y-88220000D01*
X190656000Y-88220000D02*
X190656000Y-92120000D01*
X190656000Y-92120000D02*
X184756000Y-92120000D01*
X166400000Y-116550000D02*
X166400000Y-118450000D01*
X166400000Y-116550000D02*
X169600000Y-116550000D01*
X166400000Y-118450000D02*
X169600000Y-118450000D01*
X169600000Y-116550000D02*
X169600000Y-118450000D01*
X198948000Y-91596000D02*
X198948000Y-88236000D01*
X200848000Y-91596000D02*
X198948000Y-91596000D01*
X198948000Y-88236000D02*
X200848000Y-88236000D01*
X200848000Y-88236000D02*
X200848000Y-91596000D01*
X197514000Y-91628000D02*
X194154000Y-91628000D01*
X197514000Y-89728000D02*
X197514000Y-91628000D01*
X194154000Y-91628000D02*
X194154000Y-89728000D01*
X194154000Y-89728000D02*
X197514000Y-89728000D01*
X152620000Y-119192000D02*
X155980000Y-119192000D01*
X152620000Y-121092000D02*
X152620000Y-119192000D01*
X155980000Y-119192000D02*
X155980000Y-121092000D01*
X155980000Y-121092000D02*
X152620000Y-121092000D01*
X155688000Y-115082000D02*
X155688000Y-117582000D01*
X155688000Y-115082000D02*
X160288000Y-115082000D01*
X160288000Y-117582000D02*
X155688000Y-117582000D01*
X160288000Y-117582000D02*
X160288000Y-115082000D01*
X159922000Y-121092000D02*
X156562000Y-121092000D01*
X159922000Y-119192000D02*
X159922000Y-121092000D01*
X156562000Y-121092000D02*
X156562000Y-119192000D01*
X156562000Y-119192000D02*
X159922000Y-119192000D01*
M02*
