%TF.GenerationSoftware,KiCad,Pcbnew,7.0.7*%
%TF.CreationDate,2024-01-30T18:09:50+01:00*%
%TF.ProjectId,v0.4.4c,76302e34-2e34-4632-9e6b-696361645f70,4c*%
%TF.SameCoordinates,Original*%
%TF.FileFunction,Drillmap*%
%TF.FilePolarity,Positive*%
%FSLAX45Y45*%
G04 Gerber Fmt 4.5, Leading zero omitted, Abs format (unit mm)*
G04 Created by KiCad (PCBNEW 7.0.7) date 2024-01-30 18:09:50*
%MOMM*%
%LPD*%
G01*
G04 APERTURE LIST*
%ADD10C,0.050000*%
%ADD11C,0.200000*%
G04 APERTURE END LIST*
D10*
X21050000Y-3700000D02*
X21050000Y-13700000D01*
X11050000Y-3700000D02*
X21050000Y-3700000D01*
X11050000Y-13700000D02*
X11050000Y-3700000D01*
X11050000Y-13700000D02*
X21050000Y-13700000D01*
D11*
X11308277Y-14013984D02*
X11308277Y-13813984D01*
X11308277Y-13813984D02*
X11355896Y-13813984D01*
X11355896Y-13813984D02*
X11384467Y-13823508D01*
X11384467Y-13823508D02*
X11403515Y-13842555D01*
X11403515Y-13842555D02*
X11413039Y-13861603D01*
X11413039Y-13861603D02*
X11422562Y-13899698D01*
X11422562Y-13899698D02*
X11422562Y-13928269D01*
X11422562Y-13928269D02*
X11413039Y-13966365D01*
X11413039Y-13966365D02*
X11403515Y-13985412D01*
X11403515Y-13985412D02*
X11384467Y-14004460D01*
X11384467Y-14004460D02*
X11355896Y-14013984D01*
X11355896Y-14013984D02*
X11308277Y-14013984D01*
X11508277Y-14013984D02*
X11508277Y-13880650D01*
X11508277Y-13918746D02*
X11517801Y-13899698D01*
X11517801Y-13899698D02*
X11527324Y-13890174D01*
X11527324Y-13890174D02*
X11546372Y-13880650D01*
X11546372Y-13880650D02*
X11565420Y-13880650D01*
X11632086Y-14013984D02*
X11632086Y-13880650D01*
X11632086Y-13813984D02*
X11622562Y-13823508D01*
X11622562Y-13823508D02*
X11632086Y-13833031D01*
X11632086Y-13833031D02*
X11641610Y-13823508D01*
X11641610Y-13823508D02*
X11632086Y-13813984D01*
X11632086Y-13813984D02*
X11632086Y-13833031D01*
X11755896Y-14013984D02*
X11736848Y-14004460D01*
X11736848Y-14004460D02*
X11727324Y-13985412D01*
X11727324Y-13985412D02*
X11727324Y-13813984D01*
X11860658Y-14013984D02*
X11841610Y-14004460D01*
X11841610Y-14004460D02*
X11832086Y-13985412D01*
X11832086Y-13985412D02*
X11832086Y-13813984D01*
X12089229Y-14013984D02*
X12089229Y-13813984D01*
X12089229Y-13813984D02*
X12155896Y-13956841D01*
X12155896Y-13956841D02*
X12222562Y-13813984D01*
X12222562Y-13813984D02*
X12222562Y-14013984D01*
X12403515Y-14013984D02*
X12403515Y-13909222D01*
X12403515Y-13909222D02*
X12393991Y-13890174D01*
X12393991Y-13890174D02*
X12374943Y-13880650D01*
X12374943Y-13880650D02*
X12336848Y-13880650D01*
X12336848Y-13880650D02*
X12317801Y-13890174D01*
X12403515Y-14004460D02*
X12384467Y-14013984D01*
X12384467Y-14013984D02*
X12336848Y-14013984D01*
X12336848Y-14013984D02*
X12317801Y-14004460D01*
X12317801Y-14004460D02*
X12308277Y-13985412D01*
X12308277Y-13985412D02*
X12308277Y-13966365D01*
X12308277Y-13966365D02*
X12317801Y-13947317D01*
X12317801Y-13947317D02*
X12336848Y-13937793D01*
X12336848Y-13937793D02*
X12384467Y-13937793D01*
X12384467Y-13937793D02*
X12403515Y-13928269D01*
X12498753Y-13880650D02*
X12498753Y-14080650D01*
X12498753Y-13890174D02*
X12517801Y-13880650D01*
X12517801Y-13880650D02*
X12555896Y-13880650D01*
X12555896Y-13880650D02*
X12574943Y-13890174D01*
X12574943Y-13890174D02*
X12584467Y-13899698D01*
X12584467Y-13899698D02*
X12593991Y-13918746D01*
X12593991Y-13918746D02*
X12593991Y-13975888D01*
X12593991Y-13975888D02*
X12584467Y-13994936D01*
X12584467Y-13994936D02*
X12574943Y-14004460D01*
X12574943Y-14004460D02*
X12555896Y-14013984D01*
X12555896Y-14013984D02*
X12517801Y-14013984D01*
X12517801Y-14013984D02*
X12498753Y-14004460D01*
X12679705Y-13994936D02*
X12689229Y-14004460D01*
X12689229Y-14004460D02*
X12679705Y-14013984D01*
X12679705Y-14013984D02*
X12670182Y-14004460D01*
X12670182Y-14004460D02*
X12679705Y-13994936D01*
X12679705Y-13994936D02*
X12679705Y-14013984D01*
X12679705Y-13890174D02*
X12689229Y-13899698D01*
X12689229Y-13899698D02*
X12679705Y-13909222D01*
X12679705Y-13909222D02*
X12670182Y-13899698D01*
X12670182Y-13899698D02*
X12679705Y-13890174D01*
X12679705Y-13890174D02*
X12679705Y-13909222D01*
M02*
