%TF.GenerationSoftware,KiCad,Pcbnew,7.0.7*%
%TF.CreationDate,2024-01-30T18:09:48+01:00*%
%TF.ProjectId,v0.4.4c,76302e34-2e34-4632-9e6b-696361645f70,4c*%
%TF.SameCoordinates,Original*%
%TF.FileFunction,Other,User*%
%FSLAX46Y46*%
G04 Gerber Fmt 4.6, Leading zero omitted, Abs format (unit mm)*
G04 Created by KiCad (PCBNEW 7.0.7) date 2024-01-30 18:09:48*
%MOMM*%
%LPD*%
G01*
G04 APERTURE LIST*
%ADD10C,0.150000*%
%ADD11C,0.050000*%
G04 APERTURE END LIST*
D10*
X103650000Y-63985000D02*
X103650000Y-75415000D01*
X108095000Y-95735000D02*
X108095000Y-104625000D01*
X108095000Y-95735000D02*
X121430000Y-95735000D01*
X108095000Y-104625000D02*
X121430000Y-104625000D01*
X119525000Y-63985000D02*
X103650000Y-63985000D01*
X119525000Y-63985000D02*
X119525000Y-75415000D01*
X119525000Y-75415000D02*
X103650000Y-75415000D01*
X121430000Y-95735000D02*
X121430000Y-104625000D01*
D11*
X141650000Y-115150000D02*
X141650000Y-117650000D01*
X141650000Y-115150000D02*
X138350000Y-115150000D01*
X138350000Y-117650000D02*
X141650000Y-117650000D01*
X138350000Y-117650000D02*
X138350000Y-115150000D01*
X141650000Y-109950000D02*
X141650000Y-112450000D01*
X141650000Y-109950000D02*
X138350000Y-109950000D01*
X138350000Y-112450000D02*
X141650000Y-112450000D01*
X138350000Y-112450000D02*
X138350000Y-109950000D01*
X141650000Y-112550000D02*
X141650000Y-115050000D01*
X141650000Y-112550000D02*
X138350000Y-112550000D01*
X138350000Y-115050000D02*
X141650000Y-115050000D01*
X138350000Y-115050000D02*
X138350000Y-112550000D01*
X141650000Y-117750000D02*
X141650000Y-120250000D01*
X141650000Y-117750000D02*
X138350000Y-117750000D01*
X138350000Y-120250000D02*
X141650000Y-120250000D01*
X138350000Y-120250000D02*
X138350000Y-117750000D01*
X141650000Y-120350000D02*
X141650000Y-122850000D01*
X141650000Y-120350000D02*
X138350000Y-120350000D01*
X138350000Y-122850000D02*
X141650000Y-122850000D01*
X138350000Y-122850000D02*
X138350000Y-120350000D01*
M02*
