M48
; DRILL file {KiCad 7.0.7} date Tue Jan 30 18:09:50 2024
; FORMAT={-:-/ absolute / metric / decimal}
; #@! TF.CreationDate,2024-01-30T18:09:50+01:00
; #@! TF.GenerationSoftware,Kicad,Pcbnew,7.0.7
; #@! TF.FileFunction,Plated,1,2,PTH
FMAT,2
METRIC
; #@! TA.AperFunction,Plated,PTH,ViaDrill
T1C0.400
; #@! TA.AperFunction,Plated,PTH,ViaDrill
T2C0.500
; #@! TA.AperFunction,Plated,PTH,ComponentDrill
T3C0.800
; #@! TA.AperFunction,Plated,PTH,ComponentDrill
T4C0.840
; #@! TA.AperFunction,Plated,PTH,ComponentDrill
T5C0.850
; #@! TA.AperFunction,Plated,PTH,ComponentDrill
T6C1.000
; #@! TA.AperFunction,Plated,PTH,ComponentDrill
T7C1.016
; #@! TA.AperFunction,Plated,PTH,ComponentDrill
T8C1.300
; #@! TA.AperFunction,Plated,PTH,ComponentDrill
T9C4.100
%
G90
G05
T1
X114.6Y-100.425
X116.15Y-88.95
X119.8Y-78.7
X126.5Y-90.4
X127.5Y-89.5
X127.6Y-92.9
X127.6Y-94.4
X128.8Y-85.7
X128.8Y-87.0
X134.7Y-122.7
X135.7Y-122.7
X136.3Y-112.7
X136.8Y-109.25
X136.8Y-122.8
X137.033Y-43.688
X137.033Y-46.5
X137.033Y-49.0
X137.4Y-115.3
X137.668Y-84.074
X137.7Y-123.6
X138.6Y-128.1
X138.684Y-84.074
X138.7Y-125.8
X139.1Y-123.3
X139.1Y-129.9
X140.843Y-86.995
X140.9Y-78.6
X141.2Y-84.0
X141.4Y-79.5
X141.9Y-112.574
X142.3Y-122.8
X144.2Y-121.0
X144.505Y-111.2
X144.78Y-127.0
X144.948Y-110.303
X147.066Y-120.904
X147.509Y-117.602
X147.701Y-91.567
X147.8Y-98.9
X147.93Y-111.29
X149.352Y-120.904
X150.749Y-107.442
X151.713Y-111.6
X152.146Y-120.142
X153.2Y-108.2
X154.304Y-107.315
X156.21Y-118.618
X158.16Y-106.016
X158.475Y-106.965
X158.6Y-129.0
X158.8Y-122.4
X159.5Y-124.6
X159.5Y-126.7
X159.512Y-113.792
X160.075Y-120.142
X161.6Y-122.3
X161.792Y-125.792
X162.2Y-113.5
X162.3Y-109.8
X162.814Y-59.563
X164.2Y-117.3
X164.211Y-59.563
X165.0Y-120.0
X165.1Y-127.8
X165.608Y-59.563
X165.8Y-121.8
X166.111Y-112.771
X166.75Y-42.95
X166.75Y-45.49
X166.75Y-48.03
X166.75Y-50.57
X166.878Y-106.934
X167.1Y-130.0
X169.2Y-114.3
X169.2Y-132.8
X169.29Y-42.95
X169.29Y-45.49
X169.29Y-48.03
X169.29Y-50.57
X170.9Y-128.7
X170.9Y-133.2
X171.0Y-119.5
X171.83Y-42.95
X171.83Y-45.49
X171.83Y-48.03
X171.83Y-50.57
X172.553Y-120.701
X172.6Y-121.7
X172.974Y-55.2
X173.3Y-98.7
X174.37Y-42.95
X174.37Y-45.49
X174.37Y-48.03
X174.37Y-50.57
X175.0Y-117.5
X175.514Y-128.651
X176.0Y-133.0
X180.252Y-99.568
X182.0Y-55.2
X184.0Y-94.0
X184.5Y-119.2
X187.452Y-90.424
X190.1Y-99.3
X191.5Y-128.5
X193.0Y-94.0
X193.04Y-90.678
X193.3Y-96.5
X194.0Y-118.9
X194.8Y-96.5
X198.0Y-128.1
X202.7Y-108.3
T2
X143.753Y-107.866
X147.2Y-73.6
X149.0Y-78.0
T3
X129.9Y-51.7
X129.9Y-64.4
X132.44Y-51.7
X132.44Y-64.4
X134.98Y-51.7
X134.98Y-64.4
X137.52Y-51.7
X137.52Y-64.4
X140.06Y-51.7
X140.06Y-64.4
X142.6Y-51.7
X142.6Y-64.4
X145.14Y-51.7
X145.14Y-64.4
X147.68Y-51.7
X147.68Y-64.4
X193.0Y-115.88
X193.0Y-123.5
X195.54Y-115.88
X195.54Y-123.5
X196.85Y-51.4
X198.08Y-115.88
X198.08Y-123.5
X198.85Y-43.9
X200.62Y-115.88
X200.62Y-123.5
T4
X125.82Y-64.0
X125.82Y-66.54
X125.82Y-69.08
X125.82Y-71.62
X125.82Y-74.16
X125.82Y-76.7
T5
X170.3Y-94.0
X173.3Y-94.0
T6
X121.412Y-112.776
X121.412Y-115.316
X121.412Y-117.856
X121.412Y-120.396
X121.412Y-122.936
X148.48Y-45.9
X151.02Y-45.9
X153.56Y-45.9
X156.1Y-45.9
X158.1Y-92.52
X158.1Y-95.06
X158.1Y-97.6
X158.64Y-45.9
X160.155Y-63.62
X160.155Y-66.16
X160.155Y-68.7
X160.155Y-71.24
X160.155Y-73.78
X160.155Y-76.32
X160.155Y-78.86
X160.155Y-81.4
X160.155Y-83.94
X160.155Y-86.48
X161.18Y-45.9
X162.695Y-63.62
X162.695Y-66.16
X162.695Y-68.7
X162.695Y-71.24
X162.695Y-73.78
X162.695Y-76.32
X162.695Y-78.86
X162.695Y-81.4
X162.695Y-83.94
X162.695Y-86.48
X165.235Y-63.62
X165.235Y-66.16
X165.235Y-68.7
X165.235Y-71.24
X165.235Y-73.78
X165.235Y-76.32
X165.235Y-78.86
X165.235Y-81.4
X165.235Y-83.94
X165.235Y-86.48
X167.775Y-63.62
X167.775Y-66.16
X167.775Y-68.7
X167.775Y-71.24
X167.775Y-73.78
X167.775Y-76.32
X167.775Y-78.86
X167.775Y-81.4
X167.775Y-83.94
X167.775Y-86.48
X170.315Y-63.62
X170.315Y-66.16
X170.315Y-68.7
X170.315Y-71.24
X170.315Y-73.78
X170.315Y-76.32
X170.315Y-78.86
X170.315Y-81.4
X170.315Y-83.94
X170.315Y-86.48
X172.855Y-63.62
X172.855Y-66.16
X172.855Y-68.7
X172.855Y-71.24
X172.855Y-73.78
X172.855Y-76.32
X172.855Y-78.86
X172.855Y-81.4
X172.855Y-83.94
X172.855Y-86.48
X175.395Y-63.62
X175.395Y-66.16
X175.395Y-68.7
X175.395Y-71.24
X175.395Y-73.78
X175.395Y-76.32
X175.395Y-78.86
X175.395Y-81.4
X175.395Y-83.94
X175.395Y-86.48
X177.2Y-113.4
X177.2Y-115.94
X177.2Y-123.4
X177.2Y-125.94
X177.935Y-61.08
X177.935Y-63.62
X177.935Y-66.16
X177.935Y-68.7
X177.935Y-71.24
X177.935Y-73.78
X177.935Y-76.32
X177.935Y-78.86
X177.935Y-81.4
X177.935Y-83.94
X177.935Y-86.48
X180.475Y-61.08
X180.475Y-63.62
X180.475Y-66.16
X180.475Y-68.7
X180.475Y-71.24
X180.475Y-73.78
X180.475Y-76.32
X180.475Y-78.86
X180.475Y-81.4
X180.475Y-83.94
X180.475Y-86.48
X180.9Y-113.4
X180.9Y-115.94
X180.9Y-118.48
X180.9Y-123.4
X180.9Y-125.94
X180.9Y-128.48
X183.015Y-61.08
X183.015Y-63.62
X183.015Y-66.16
X183.015Y-68.7
X183.015Y-71.24
X183.015Y-73.78
X183.015Y-76.32
X183.015Y-78.86
X183.015Y-81.4
X183.015Y-83.94
X183.015Y-86.48
X185.555Y-61.08
X185.555Y-63.62
X185.555Y-66.16
X185.555Y-68.7
X185.555Y-71.24
X185.555Y-73.78
X185.555Y-76.32
X185.555Y-78.86
X185.555Y-81.4
X185.555Y-83.94
X185.555Y-86.48
X188.095Y-61.08
X188.095Y-63.62
X188.095Y-66.16
X188.095Y-68.7
X188.095Y-71.24
X188.095Y-73.78
X188.095Y-76.32
X188.095Y-78.86
X188.095Y-81.4
X188.095Y-83.94
X188.095Y-86.48
X190.635Y-61.08
X190.635Y-63.62
X190.635Y-66.16
X190.635Y-68.7
X190.635Y-71.24
X190.635Y-73.78
X190.635Y-76.32
X190.635Y-78.86
X190.635Y-81.4
X190.635Y-83.94
X190.635Y-86.48
X193.175Y-61.08
X193.175Y-63.62
X193.175Y-66.16
X193.175Y-68.7
X193.175Y-71.24
X193.175Y-73.78
X193.175Y-76.32
X193.175Y-78.86
X193.175Y-81.4
X193.175Y-83.94
X193.175Y-86.48
X195.715Y-61.08
X195.715Y-63.62
X195.715Y-66.16
X195.715Y-68.7
X195.715Y-71.24
X195.715Y-73.78
X195.715Y-76.32
X195.715Y-78.86
X195.715Y-81.4
X195.715Y-83.94
X195.715Y-86.48
X198.255Y-61.08
X198.255Y-63.62
X198.255Y-66.16
X198.255Y-68.7
X198.255Y-71.24
X198.255Y-73.78
X198.255Y-76.32
X198.255Y-78.86
X198.255Y-81.4
T7
X128.796Y-57.0
X130.5Y-79.74
X130.5Y-82.28
X130.5Y-84.82
X130.5Y-87.36
X130.5Y-89.9
X130.5Y-92.44
X130.5Y-94.98
X130.5Y-97.52
X130.5Y-100.06
X130.5Y-102.6
X130.5Y-105.14
X130.5Y-107.68
X130.5Y-110.22
X130.5Y-112.76
X130.5Y-115.3
X130.5Y-117.84
X130.5Y-120.38
X130.5Y-122.92
X130.5Y-125.46
X130.5Y-128.0
X131.336Y-57.0
X133.04Y-79.74
X133.04Y-82.28
X133.04Y-84.82
X133.04Y-87.36
X133.04Y-89.9
X133.04Y-92.44
X133.04Y-94.98
X133.04Y-97.52
X133.04Y-100.06
X133.04Y-102.6
X133.04Y-105.14
X133.04Y-107.68
X133.04Y-110.22
X133.04Y-112.76
X133.04Y-115.3
X133.04Y-117.84
X133.04Y-120.38
X133.04Y-122.92
X133.04Y-125.46
X133.04Y-128.0
X133.876Y-57.0
X136.416Y-57.0
X137.94Y-105.26
X138.956Y-57.0
X140.48Y-105.26
X141.496Y-57.0
X143.02Y-105.26
X144.036Y-57.0
X145.56Y-105.26
X146.576Y-57.0
X148.1Y-105.26
X149.116Y-57.0
X150.64Y-105.26
X151.656Y-57.0
X153.18Y-105.26
X155.72Y-57.0
X155.72Y-105.26
X158.26Y-57.0
X160.8Y-57.0
X160.8Y-105.26
X163.34Y-57.0
X163.34Y-105.26
X165.88Y-57.0
X165.88Y-105.26
X168.42Y-57.0
X168.42Y-105.26
X170.96Y-57.0
X170.96Y-105.26
X173.5Y-57.0
X173.5Y-105.26
X176.04Y-105.26
X178.58Y-57.0
X178.58Y-105.26
X181.12Y-57.0
X183.66Y-57.0
X183.66Y-105.26
X186.2Y-57.0
X186.2Y-105.26
X188.74Y-57.0
X188.74Y-105.26
X191.28Y-57.0
X191.28Y-105.26
X193.82Y-57.0
X193.82Y-105.26
X196.36Y-57.0
X196.36Y-105.26
X198.9Y-105.26
X201.44Y-105.26
X203.98Y-57.0
X203.98Y-59.54
X203.98Y-62.08
X203.98Y-64.62
X203.98Y-67.16
X203.98Y-69.7
X203.98Y-72.24
X203.98Y-74.78
X203.98Y-77.32
X203.98Y-79.86
X203.98Y-82.4
X203.98Y-84.94
X203.98Y-87.48
X203.98Y-90.02
X203.98Y-92.56
X203.98Y-95.1
X203.98Y-97.64
X203.98Y-100.18
X206.52Y-57.0
X206.52Y-59.54
X206.52Y-62.08
X206.52Y-64.62
X206.52Y-67.16
X206.52Y-69.7
X206.52Y-72.24
X206.52Y-74.78
X206.52Y-77.32
X206.52Y-79.86
X206.52Y-82.4
X206.52Y-84.94
X206.52Y-87.48
X206.52Y-90.02
X206.52Y-92.56
X206.52Y-95.1
X206.52Y-97.64
X206.52Y-100.18
T8
X205.0Y-44.0
X205.0Y-49.0
T9
X113.5Y-58.8
X113.5Y-81.95
T0
M30
