%TF.GenerationSoftware,KiCad,Pcbnew,7.0.7*%
%TF.CreationDate,2024-01-30T18:09:48+01:00*%
%TF.ProjectId,v0.4.4c,76302e34-2e34-4632-9e6b-696361645f70,4c*%
%TF.SameCoordinates,Original*%
%TF.FileFunction,AssemblyDrawing,Bot*%
%FSLAX46Y46*%
G04 Gerber Fmt 4.6, Leading zero omitted, Abs format (unit mm)*
G04 Created by KiCad (PCBNEW 7.0.7) date 2024-01-30 18:09:48*
%MOMM*%
%LPD*%
G01*
G04 APERTURE LIST*
%ADD10C,0.150000*%
G04 APERTURE END LIST*
D10*
X148952381Y-118707200D02*
X148809524Y-118754819D01*
X148809524Y-118754819D02*
X148571429Y-118754819D01*
X148571429Y-118754819D02*
X148476191Y-118707200D01*
X148476191Y-118707200D02*
X148428572Y-118659580D01*
X148428572Y-118659580D02*
X148380953Y-118564342D01*
X148380953Y-118564342D02*
X148380953Y-118469104D01*
X148380953Y-118469104D02*
X148428572Y-118373866D01*
X148428572Y-118373866D02*
X148476191Y-118326247D01*
X148476191Y-118326247D02*
X148571429Y-118278628D01*
X148571429Y-118278628D02*
X148761905Y-118231009D01*
X148761905Y-118231009D02*
X148857143Y-118183390D01*
X148857143Y-118183390D02*
X148904762Y-118135771D01*
X148904762Y-118135771D02*
X148952381Y-118040533D01*
X148952381Y-118040533D02*
X148952381Y-117945295D01*
X148952381Y-117945295D02*
X148904762Y-117850057D01*
X148904762Y-117850057D02*
X148857143Y-117802438D01*
X148857143Y-117802438D02*
X148761905Y-117754819D01*
X148761905Y-117754819D02*
X148523810Y-117754819D01*
X148523810Y-117754819D02*
X148380953Y-117802438D01*
X147809524Y-118754819D02*
X147904762Y-118707200D01*
X147904762Y-118707200D02*
X147952381Y-118659580D01*
X147952381Y-118659580D02*
X148000000Y-118564342D01*
X148000000Y-118564342D02*
X148000000Y-118278628D01*
X148000000Y-118278628D02*
X147952381Y-118183390D01*
X147952381Y-118183390D02*
X147904762Y-118135771D01*
X147904762Y-118135771D02*
X147809524Y-118088152D01*
X147809524Y-118088152D02*
X147666667Y-118088152D01*
X147666667Y-118088152D02*
X147571429Y-118135771D01*
X147571429Y-118135771D02*
X147523810Y-118183390D01*
X147523810Y-118183390D02*
X147476191Y-118278628D01*
X147476191Y-118278628D02*
X147476191Y-118564342D01*
X147476191Y-118564342D02*
X147523810Y-118659580D01*
X147523810Y-118659580D02*
X147571429Y-118707200D01*
X147571429Y-118707200D02*
X147666667Y-118754819D01*
X147666667Y-118754819D02*
X147809524Y-118754819D01*
X146904762Y-118754819D02*
X147000000Y-118707200D01*
X147000000Y-118707200D02*
X147047619Y-118611961D01*
X147047619Y-118611961D02*
X147047619Y-117754819D01*
X146095238Y-118754819D02*
X146095238Y-117754819D01*
X146095238Y-118707200D02*
X146190476Y-118754819D01*
X146190476Y-118754819D02*
X146380952Y-118754819D01*
X146380952Y-118754819D02*
X146476190Y-118707200D01*
X146476190Y-118707200D02*
X146523809Y-118659580D01*
X146523809Y-118659580D02*
X146571428Y-118564342D01*
X146571428Y-118564342D02*
X146571428Y-118278628D01*
X146571428Y-118278628D02*
X146523809Y-118183390D01*
X146523809Y-118183390D02*
X146476190Y-118135771D01*
X146476190Y-118135771D02*
X146380952Y-118088152D01*
X146380952Y-118088152D02*
X146190476Y-118088152D01*
X146190476Y-118088152D02*
X146095238Y-118135771D01*
X145238095Y-118707200D02*
X145333333Y-118754819D01*
X145333333Y-118754819D02*
X145523809Y-118754819D01*
X145523809Y-118754819D02*
X145619047Y-118707200D01*
X145619047Y-118707200D02*
X145666666Y-118611961D01*
X145666666Y-118611961D02*
X145666666Y-118231009D01*
X145666666Y-118231009D02*
X145619047Y-118135771D01*
X145619047Y-118135771D02*
X145523809Y-118088152D01*
X145523809Y-118088152D02*
X145333333Y-118088152D01*
X145333333Y-118088152D02*
X145238095Y-118135771D01*
X145238095Y-118135771D02*
X145190476Y-118231009D01*
X145190476Y-118231009D02*
X145190476Y-118326247D01*
X145190476Y-118326247D02*
X145666666Y-118421485D01*
X144761904Y-118754819D02*
X144761904Y-118088152D01*
X144761904Y-118278628D02*
X144714285Y-118183390D01*
X144714285Y-118183390D02*
X144666666Y-118135771D01*
X144666666Y-118135771D02*
X144571428Y-118088152D01*
X144571428Y-118088152D02*
X144476190Y-118088152D01*
X143857142Y-117754819D02*
X143857142Y-118469104D01*
X143857142Y-118469104D02*
X143904761Y-118611961D01*
X143904761Y-118611961D02*
X143999999Y-118707200D01*
X143999999Y-118707200D02*
X144142856Y-118754819D01*
X144142856Y-118754819D02*
X144238094Y-118754819D01*
X142952380Y-118088152D02*
X142952380Y-118754819D01*
X143380951Y-118088152D02*
X143380951Y-118611961D01*
X143380951Y-118611961D02*
X143333332Y-118707200D01*
X143333332Y-118707200D02*
X143238094Y-118754819D01*
X143238094Y-118754819D02*
X143095237Y-118754819D01*
X143095237Y-118754819D02*
X142999999Y-118707200D01*
X142999999Y-118707200D02*
X142952380Y-118659580D01*
X142476189Y-118754819D02*
X142476189Y-118088152D01*
X142476189Y-118183390D02*
X142428570Y-118135771D01*
X142428570Y-118135771D02*
X142333332Y-118088152D01*
X142333332Y-118088152D02*
X142190475Y-118088152D01*
X142190475Y-118088152D02*
X142095237Y-118135771D01*
X142095237Y-118135771D02*
X142047618Y-118231009D01*
X142047618Y-118231009D02*
X142047618Y-118754819D01*
X142047618Y-118231009D02*
X141999999Y-118135771D01*
X141999999Y-118135771D02*
X141904761Y-118088152D01*
X141904761Y-118088152D02*
X141761904Y-118088152D01*
X141761904Y-118088152D02*
X141666665Y-118135771D01*
X141666665Y-118135771D02*
X141619046Y-118231009D01*
X141619046Y-118231009D02*
X141619046Y-118754819D01*
X141142856Y-118088152D02*
X141142856Y-119088152D01*
X141142856Y-118135771D02*
X141047618Y-118088152D01*
X141047618Y-118088152D02*
X140857142Y-118088152D01*
X140857142Y-118088152D02*
X140761904Y-118135771D01*
X140761904Y-118135771D02*
X140714285Y-118183390D01*
X140714285Y-118183390D02*
X140666666Y-118278628D01*
X140666666Y-118278628D02*
X140666666Y-118564342D01*
X140666666Y-118564342D02*
X140714285Y-118659580D01*
X140714285Y-118659580D02*
X140761904Y-118707200D01*
X140761904Y-118707200D02*
X140857142Y-118754819D01*
X140857142Y-118754819D02*
X141047618Y-118754819D01*
X141047618Y-118754819D02*
X141142856Y-118707200D01*
X139857142Y-118707200D02*
X139952380Y-118754819D01*
X139952380Y-118754819D02*
X140142856Y-118754819D01*
X140142856Y-118754819D02*
X140238094Y-118707200D01*
X140238094Y-118707200D02*
X140285713Y-118611961D01*
X140285713Y-118611961D02*
X140285713Y-118231009D01*
X140285713Y-118231009D02*
X140238094Y-118135771D01*
X140238094Y-118135771D02*
X140142856Y-118088152D01*
X140142856Y-118088152D02*
X139952380Y-118088152D01*
X139952380Y-118088152D02*
X139857142Y-118135771D01*
X139857142Y-118135771D02*
X139809523Y-118231009D01*
X139809523Y-118231009D02*
X139809523Y-118326247D01*
X139809523Y-118326247D02*
X140285713Y-118421485D01*
X139380951Y-118754819D02*
X139380951Y-118088152D01*
X139380951Y-118278628D02*
X139333332Y-118183390D01*
X139333332Y-118183390D02*
X139285713Y-118135771D01*
X139285713Y-118135771D02*
X139190475Y-118088152D01*
X139190475Y-118088152D02*
X139095237Y-118088152D01*
X138999999Y-118850057D02*
X138238094Y-118850057D01*
X138047617Y-117850057D02*
X137999998Y-117802438D01*
X137999998Y-117802438D02*
X137904760Y-117754819D01*
X137904760Y-117754819D02*
X137666665Y-117754819D01*
X137666665Y-117754819D02*
X137571427Y-117802438D01*
X137571427Y-117802438D02*
X137523808Y-117850057D01*
X137523808Y-117850057D02*
X137476189Y-117945295D01*
X137476189Y-117945295D02*
X137476189Y-118040533D01*
X137476189Y-118040533D02*
X137523808Y-118183390D01*
X137523808Y-118183390D02*
X138095236Y-118754819D01*
X138095236Y-118754819D02*
X137476189Y-118754819D01*
X137285713Y-118850057D02*
X136523808Y-118850057D01*
X135952379Y-118231009D02*
X135809522Y-118278628D01*
X135809522Y-118278628D02*
X135761903Y-118326247D01*
X135761903Y-118326247D02*
X135714284Y-118421485D01*
X135714284Y-118421485D02*
X135714284Y-118564342D01*
X135714284Y-118564342D02*
X135761903Y-118659580D01*
X135761903Y-118659580D02*
X135809522Y-118707200D01*
X135809522Y-118707200D02*
X135904760Y-118754819D01*
X135904760Y-118754819D02*
X136285712Y-118754819D01*
X136285712Y-118754819D02*
X136285712Y-117754819D01*
X136285712Y-117754819D02*
X135952379Y-117754819D01*
X135952379Y-117754819D02*
X135857141Y-117802438D01*
X135857141Y-117802438D02*
X135809522Y-117850057D01*
X135809522Y-117850057D02*
X135761903Y-117945295D01*
X135761903Y-117945295D02*
X135761903Y-118040533D01*
X135761903Y-118040533D02*
X135809522Y-118135771D01*
X135809522Y-118135771D02*
X135857141Y-118183390D01*
X135857141Y-118183390D02*
X135952379Y-118231009D01*
X135952379Y-118231009D02*
X136285712Y-118231009D01*
X135285712Y-118754819D02*
X135285712Y-118088152D01*
X135285712Y-118278628D02*
X135238093Y-118183390D01*
X135238093Y-118183390D02*
X135190474Y-118135771D01*
X135190474Y-118135771D02*
X135095236Y-118088152D01*
X135095236Y-118088152D02*
X134999998Y-118088152D01*
X134666664Y-118754819D02*
X134666664Y-118088152D01*
X134666664Y-117754819D02*
X134714283Y-117802438D01*
X134714283Y-117802438D02*
X134666664Y-117850057D01*
X134666664Y-117850057D02*
X134619045Y-117802438D01*
X134619045Y-117802438D02*
X134666664Y-117754819D01*
X134666664Y-117754819D02*
X134666664Y-117850057D01*
X133761903Y-118754819D02*
X133761903Y-117754819D01*
X133761903Y-118707200D02*
X133857141Y-118754819D01*
X133857141Y-118754819D02*
X134047617Y-118754819D01*
X134047617Y-118754819D02*
X134142855Y-118707200D01*
X134142855Y-118707200D02*
X134190474Y-118659580D01*
X134190474Y-118659580D02*
X134238093Y-118564342D01*
X134238093Y-118564342D02*
X134238093Y-118278628D01*
X134238093Y-118278628D02*
X134190474Y-118183390D01*
X134190474Y-118183390D02*
X134142855Y-118135771D01*
X134142855Y-118135771D02*
X134047617Y-118088152D01*
X134047617Y-118088152D02*
X133857141Y-118088152D01*
X133857141Y-118088152D02*
X133761903Y-118135771D01*
X132857141Y-118088152D02*
X132857141Y-118897676D01*
X132857141Y-118897676D02*
X132904760Y-118992914D01*
X132904760Y-118992914D02*
X132952379Y-119040533D01*
X132952379Y-119040533D02*
X133047617Y-119088152D01*
X133047617Y-119088152D02*
X133190474Y-119088152D01*
X133190474Y-119088152D02*
X133285712Y-119040533D01*
X132857141Y-118707200D02*
X132952379Y-118754819D01*
X132952379Y-118754819D02*
X133142855Y-118754819D01*
X133142855Y-118754819D02*
X133238093Y-118707200D01*
X133238093Y-118707200D02*
X133285712Y-118659580D01*
X133285712Y-118659580D02*
X133333331Y-118564342D01*
X133333331Y-118564342D02*
X133333331Y-118278628D01*
X133333331Y-118278628D02*
X133285712Y-118183390D01*
X133285712Y-118183390D02*
X133238093Y-118135771D01*
X133238093Y-118135771D02*
X133142855Y-118088152D01*
X133142855Y-118088152D02*
X132952379Y-118088152D01*
X132952379Y-118088152D02*
X132857141Y-118135771D01*
X131999998Y-118707200D02*
X132095236Y-118754819D01*
X132095236Y-118754819D02*
X132285712Y-118754819D01*
X132285712Y-118754819D02*
X132380950Y-118707200D01*
X132380950Y-118707200D02*
X132428569Y-118611961D01*
X132428569Y-118611961D02*
X132428569Y-118231009D01*
X132428569Y-118231009D02*
X132380950Y-118135771D01*
X132380950Y-118135771D02*
X132285712Y-118088152D01*
X132285712Y-118088152D02*
X132095236Y-118088152D01*
X132095236Y-118088152D02*
X131999998Y-118135771D01*
X131999998Y-118135771D02*
X131952379Y-118231009D01*
X131952379Y-118231009D02*
X131952379Y-118326247D01*
X131952379Y-118326247D02*
X132428569Y-118421485D01*
X131095236Y-118754819D02*
X131095236Y-117754819D01*
X131095236Y-118707200D02*
X131190474Y-118754819D01*
X131190474Y-118754819D02*
X131380950Y-118754819D01*
X131380950Y-118754819D02*
X131476188Y-118707200D01*
X131476188Y-118707200D02*
X131523807Y-118659580D01*
X131523807Y-118659580D02*
X131571426Y-118564342D01*
X131571426Y-118564342D02*
X131571426Y-118278628D01*
X131571426Y-118278628D02*
X131523807Y-118183390D01*
X131523807Y-118183390D02*
X131476188Y-118135771D01*
X131476188Y-118135771D02*
X131380950Y-118088152D01*
X131380950Y-118088152D02*
X131190474Y-118088152D01*
X131190474Y-118088152D02*
X131095236Y-118135771D01*
X148952381Y-113507200D02*
X148809524Y-113554819D01*
X148809524Y-113554819D02*
X148571429Y-113554819D01*
X148571429Y-113554819D02*
X148476191Y-113507200D01*
X148476191Y-113507200D02*
X148428572Y-113459580D01*
X148428572Y-113459580D02*
X148380953Y-113364342D01*
X148380953Y-113364342D02*
X148380953Y-113269104D01*
X148380953Y-113269104D02*
X148428572Y-113173866D01*
X148428572Y-113173866D02*
X148476191Y-113126247D01*
X148476191Y-113126247D02*
X148571429Y-113078628D01*
X148571429Y-113078628D02*
X148761905Y-113031009D01*
X148761905Y-113031009D02*
X148857143Y-112983390D01*
X148857143Y-112983390D02*
X148904762Y-112935771D01*
X148904762Y-112935771D02*
X148952381Y-112840533D01*
X148952381Y-112840533D02*
X148952381Y-112745295D01*
X148952381Y-112745295D02*
X148904762Y-112650057D01*
X148904762Y-112650057D02*
X148857143Y-112602438D01*
X148857143Y-112602438D02*
X148761905Y-112554819D01*
X148761905Y-112554819D02*
X148523810Y-112554819D01*
X148523810Y-112554819D02*
X148380953Y-112602438D01*
X147809524Y-113554819D02*
X147904762Y-113507200D01*
X147904762Y-113507200D02*
X147952381Y-113459580D01*
X147952381Y-113459580D02*
X148000000Y-113364342D01*
X148000000Y-113364342D02*
X148000000Y-113078628D01*
X148000000Y-113078628D02*
X147952381Y-112983390D01*
X147952381Y-112983390D02*
X147904762Y-112935771D01*
X147904762Y-112935771D02*
X147809524Y-112888152D01*
X147809524Y-112888152D02*
X147666667Y-112888152D01*
X147666667Y-112888152D02*
X147571429Y-112935771D01*
X147571429Y-112935771D02*
X147523810Y-112983390D01*
X147523810Y-112983390D02*
X147476191Y-113078628D01*
X147476191Y-113078628D02*
X147476191Y-113364342D01*
X147476191Y-113364342D02*
X147523810Y-113459580D01*
X147523810Y-113459580D02*
X147571429Y-113507200D01*
X147571429Y-113507200D02*
X147666667Y-113554819D01*
X147666667Y-113554819D02*
X147809524Y-113554819D01*
X146904762Y-113554819D02*
X147000000Y-113507200D01*
X147000000Y-113507200D02*
X147047619Y-113411961D01*
X147047619Y-113411961D02*
X147047619Y-112554819D01*
X146095238Y-113554819D02*
X146095238Y-112554819D01*
X146095238Y-113507200D02*
X146190476Y-113554819D01*
X146190476Y-113554819D02*
X146380952Y-113554819D01*
X146380952Y-113554819D02*
X146476190Y-113507200D01*
X146476190Y-113507200D02*
X146523809Y-113459580D01*
X146523809Y-113459580D02*
X146571428Y-113364342D01*
X146571428Y-113364342D02*
X146571428Y-113078628D01*
X146571428Y-113078628D02*
X146523809Y-112983390D01*
X146523809Y-112983390D02*
X146476190Y-112935771D01*
X146476190Y-112935771D02*
X146380952Y-112888152D01*
X146380952Y-112888152D02*
X146190476Y-112888152D01*
X146190476Y-112888152D02*
X146095238Y-112935771D01*
X145238095Y-113507200D02*
X145333333Y-113554819D01*
X145333333Y-113554819D02*
X145523809Y-113554819D01*
X145523809Y-113554819D02*
X145619047Y-113507200D01*
X145619047Y-113507200D02*
X145666666Y-113411961D01*
X145666666Y-113411961D02*
X145666666Y-113031009D01*
X145666666Y-113031009D02*
X145619047Y-112935771D01*
X145619047Y-112935771D02*
X145523809Y-112888152D01*
X145523809Y-112888152D02*
X145333333Y-112888152D01*
X145333333Y-112888152D02*
X145238095Y-112935771D01*
X145238095Y-112935771D02*
X145190476Y-113031009D01*
X145190476Y-113031009D02*
X145190476Y-113126247D01*
X145190476Y-113126247D02*
X145666666Y-113221485D01*
X144761904Y-113554819D02*
X144761904Y-112888152D01*
X144761904Y-113078628D02*
X144714285Y-112983390D01*
X144714285Y-112983390D02*
X144666666Y-112935771D01*
X144666666Y-112935771D02*
X144571428Y-112888152D01*
X144571428Y-112888152D02*
X144476190Y-112888152D01*
X143857142Y-112554819D02*
X143857142Y-113269104D01*
X143857142Y-113269104D02*
X143904761Y-113411961D01*
X143904761Y-113411961D02*
X143999999Y-113507200D01*
X143999999Y-113507200D02*
X144142856Y-113554819D01*
X144142856Y-113554819D02*
X144238094Y-113554819D01*
X142952380Y-112888152D02*
X142952380Y-113554819D01*
X143380951Y-112888152D02*
X143380951Y-113411961D01*
X143380951Y-113411961D02*
X143333332Y-113507200D01*
X143333332Y-113507200D02*
X143238094Y-113554819D01*
X143238094Y-113554819D02*
X143095237Y-113554819D01*
X143095237Y-113554819D02*
X142999999Y-113507200D01*
X142999999Y-113507200D02*
X142952380Y-113459580D01*
X142476189Y-113554819D02*
X142476189Y-112888152D01*
X142476189Y-112983390D02*
X142428570Y-112935771D01*
X142428570Y-112935771D02*
X142333332Y-112888152D01*
X142333332Y-112888152D02*
X142190475Y-112888152D01*
X142190475Y-112888152D02*
X142095237Y-112935771D01*
X142095237Y-112935771D02*
X142047618Y-113031009D01*
X142047618Y-113031009D02*
X142047618Y-113554819D01*
X142047618Y-113031009D02*
X141999999Y-112935771D01*
X141999999Y-112935771D02*
X141904761Y-112888152D01*
X141904761Y-112888152D02*
X141761904Y-112888152D01*
X141761904Y-112888152D02*
X141666665Y-112935771D01*
X141666665Y-112935771D02*
X141619046Y-113031009D01*
X141619046Y-113031009D02*
X141619046Y-113554819D01*
X141142856Y-112888152D02*
X141142856Y-113888152D01*
X141142856Y-112935771D02*
X141047618Y-112888152D01*
X141047618Y-112888152D02*
X140857142Y-112888152D01*
X140857142Y-112888152D02*
X140761904Y-112935771D01*
X140761904Y-112935771D02*
X140714285Y-112983390D01*
X140714285Y-112983390D02*
X140666666Y-113078628D01*
X140666666Y-113078628D02*
X140666666Y-113364342D01*
X140666666Y-113364342D02*
X140714285Y-113459580D01*
X140714285Y-113459580D02*
X140761904Y-113507200D01*
X140761904Y-113507200D02*
X140857142Y-113554819D01*
X140857142Y-113554819D02*
X141047618Y-113554819D01*
X141047618Y-113554819D02*
X141142856Y-113507200D01*
X139857142Y-113507200D02*
X139952380Y-113554819D01*
X139952380Y-113554819D02*
X140142856Y-113554819D01*
X140142856Y-113554819D02*
X140238094Y-113507200D01*
X140238094Y-113507200D02*
X140285713Y-113411961D01*
X140285713Y-113411961D02*
X140285713Y-113031009D01*
X140285713Y-113031009D02*
X140238094Y-112935771D01*
X140238094Y-112935771D02*
X140142856Y-112888152D01*
X140142856Y-112888152D02*
X139952380Y-112888152D01*
X139952380Y-112888152D02*
X139857142Y-112935771D01*
X139857142Y-112935771D02*
X139809523Y-113031009D01*
X139809523Y-113031009D02*
X139809523Y-113126247D01*
X139809523Y-113126247D02*
X140285713Y-113221485D01*
X139380951Y-113554819D02*
X139380951Y-112888152D01*
X139380951Y-113078628D02*
X139333332Y-112983390D01*
X139333332Y-112983390D02*
X139285713Y-112935771D01*
X139285713Y-112935771D02*
X139190475Y-112888152D01*
X139190475Y-112888152D02*
X139095237Y-112888152D01*
X138999999Y-113650057D02*
X138238094Y-113650057D01*
X138047617Y-112650057D02*
X137999998Y-112602438D01*
X137999998Y-112602438D02*
X137904760Y-112554819D01*
X137904760Y-112554819D02*
X137666665Y-112554819D01*
X137666665Y-112554819D02*
X137571427Y-112602438D01*
X137571427Y-112602438D02*
X137523808Y-112650057D01*
X137523808Y-112650057D02*
X137476189Y-112745295D01*
X137476189Y-112745295D02*
X137476189Y-112840533D01*
X137476189Y-112840533D02*
X137523808Y-112983390D01*
X137523808Y-112983390D02*
X138095236Y-113554819D01*
X138095236Y-113554819D02*
X137476189Y-113554819D01*
X137285713Y-113650057D02*
X136523808Y-113650057D01*
X135952379Y-113031009D02*
X135809522Y-113078628D01*
X135809522Y-113078628D02*
X135761903Y-113126247D01*
X135761903Y-113126247D02*
X135714284Y-113221485D01*
X135714284Y-113221485D02*
X135714284Y-113364342D01*
X135714284Y-113364342D02*
X135761903Y-113459580D01*
X135761903Y-113459580D02*
X135809522Y-113507200D01*
X135809522Y-113507200D02*
X135904760Y-113554819D01*
X135904760Y-113554819D02*
X136285712Y-113554819D01*
X136285712Y-113554819D02*
X136285712Y-112554819D01*
X136285712Y-112554819D02*
X135952379Y-112554819D01*
X135952379Y-112554819D02*
X135857141Y-112602438D01*
X135857141Y-112602438D02*
X135809522Y-112650057D01*
X135809522Y-112650057D02*
X135761903Y-112745295D01*
X135761903Y-112745295D02*
X135761903Y-112840533D01*
X135761903Y-112840533D02*
X135809522Y-112935771D01*
X135809522Y-112935771D02*
X135857141Y-112983390D01*
X135857141Y-112983390D02*
X135952379Y-113031009D01*
X135952379Y-113031009D02*
X136285712Y-113031009D01*
X135285712Y-113554819D02*
X135285712Y-112888152D01*
X135285712Y-113078628D02*
X135238093Y-112983390D01*
X135238093Y-112983390D02*
X135190474Y-112935771D01*
X135190474Y-112935771D02*
X135095236Y-112888152D01*
X135095236Y-112888152D02*
X134999998Y-112888152D01*
X134666664Y-113554819D02*
X134666664Y-112888152D01*
X134666664Y-112554819D02*
X134714283Y-112602438D01*
X134714283Y-112602438D02*
X134666664Y-112650057D01*
X134666664Y-112650057D02*
X134619045Y-112602438D01*
X134619045Y-112602438D02*
X134666664Y-112554819D01*
X134666664Y-112554819D02*
X134666664Y-112650057D01*
X133761903Y-113554819D02*
X133761903Y-112554819D01*
X133761903Y-113507200D02*
X133857141Y-113554819D01*
X133857141Y-113554819D02*
X134047617Y-113554819D01*
X134047617Y-113554819D02*
X134142855Y-113507200D01*
X134142855Y-113507200D02*
X134190474Y-113459580D01*
X134190474Y-113459580D02*
X134238093Y-113364342D01*
X134238093Y-113364342D02*
X134238093Y-113078628D01*
X134238093Y-113078628D02*
X134190474Y-112983390D01*
X134190474Y-112983390D02*
X134142855Y-112935771D01*
X134142855Y-112935771D02*
X134047617Y-112888152D01*
X134047617Y-112888152D02*
X133857141Y-112888152D01*
X133857141Y-112888152D02*
X133761903Y-112935771D01*
X132857141Y-112888152D02*
X132857141Y-113697676D01*
X132857141Y-113697676D02*
X132904760Y-113792914D01*
X132904760Y-113792914D02*
X132952379Y-113840533D01*
X132952379Y-113840533D02*
X133047617Y-113888152D01*
X133047617Y-113888152D02*
X133190474Y-113888152D01*
X133190474Y-113888152D02*
X133285712Y-113840533D01*
X132857141Y-113507200D02*
X132952379Y-113554819D01*
X132952379Y-113554819D02*
X133142855Y-113554819D01*
X133142855Y-113554819D02*
X133238093Y-113507200D01*
X133238093Y-113507200D02*
X133285712Y-113459580D01*
X133285712Y-113459580D02*
X133333331Y-113364342D01*
X133333331Y-113364342D02*
X133333331Y-113078628D01*
X133333331Y-113078628D02*
X133285712Y-112983390D01*
X133285712Y-112983390D02*
X133238093Y-112935771D01*
X133238093Y-112935771D02*
X133142855Y-112888152D01*
X133142855Y-112888152D02*
X132952379Y-112888152D01*
X132952379Y-112888152D02*
X132857141Y-112935771D01*
X131999998Y-113507200D02*
X132095236Y-113554819D01*
X132095236Y-113554819D02*
X132285712Y-113554819D01*
X132285712Y-113554819D02*
X132380950Y-113507200D01*
X132380950Y-113507200D02*
X132428569Y-113411961D01*
X132428569Y-113411961D02*
X132428569Y-113031009D01*
X132428569Y-113031009D02*
X132380950Y-112935771D01*
X132380950Y-112935771D02*
X132285712Y-112888152D01*
X132285712Y-112888152D02*
X132095236Y-112888152D01*
X132095236Y-112888152D02*
X131999998Y-112935771D01*
X131999998Y-112935771D02*
X131952379Y-113031009D01*
X131952379Y-113031009D02*
X131952379Y-113126247D01*
X131952379Y-113126247D02*
X132428569Y-113221485D01*
X131095236Y-113554819D02*
X131095236Y-112554819D01*
X131095236Y-113507200D02*
X131190474Y-113554819D01*
X131190474Y-113554819D02*
X131380950Y-113554819D01*
X131380950Y-113554819D02*
X131476188Y-113507200D01*
X131476188Y-113507200D02*
X131523807Y-113459580D01*
X131523807Y-113459580D02*
X131571426Y-113364342D01*
X131571426Y-113364342D02*
X131571426Y-113078628D01*
X131571426Y-113078628D02*
X131523807Y-112983390D01*
X131523807Y-112983390D02*
X131476188Y-112935771D01*
X131476188Y-112935771D02*
X131380950Y-112888152D01*
X131380950Y-112888152D02*
X131190474Y-112888152D01*
X131190474Y-112888152D02*
X131095236Y-112935771D01*
X148952381Y-116107200D02*
X148809524Y-116154819D01*
X148809524Y-116154819D02*
X148571429Y-116154819D01*
X148571429Y-116154819D02*
X148476191Y-116107200D01*
X148476191Y-116107200D02*
X148428572Y-116059580D01*
X148428572Y-116059580D02*
X148380953Y-115964342D01*
X148380953Y-115964342D02*
X148380953Y-115869104D01*
X148380953Y-115869104D02*
X148428572Y-115773866D01*
X148428572Y-115773866D02*
X148476191Y-115726247D01*
X148476191Y-115726247D02*
X148571429Y-115678628D01*
X148571429Y-115678628D02*
X148761905Y-115631009D01*
X148761905Y-115631009D02*
X148857143Y-115583390D01*
X148857143Y-115583390D02*
X148904762Y-115535771D01*
X148904762Y-115535771D02*
X148952381Y-115440533D01*
X148952381Y-115440533D02*
X148952381Y-115345295D01*
X148952381Y-115345295D02*
X148904762Y-115250057D01*
X148904762Y-115250057D02*
X148857143Y-115202438D01*
X148857143Y-115202438D02*
X148761905Y-115154819D01*
X148761905Y-115154819D02*
X148523810Y-115154819D01*
X148523810Y-115154819D02*
X148380953Y-115202438D01*
X147809524Y-116154819D02*
X147904762Y-116107200D01*
X147904762Y-116107200D02*
X147952381Y-116059580D01*
X147952381Y-116059580D02*
X148000000Y-115964342D01*
X148000000Y-115964342D02*
X148000000Y-115678628D01*
X148000000Y-115678628D02*
X147952381Y-115583390D01*
X147952381Y-115583390D02*
X147904762Y-115535771D01*
X147904762Y-115535771D02*
X147809524Y-115488152D01*
X147809524Y-115488152D02*
X147666667Y-115488152D01*
X147666667Y-115488152D02*
X147571429Y-115535771D01*
X147571429Y-115535771D02*
X147523810Y-115583390D01*
X147523810Y-115583390D02*
X147476191Y-115678628D01*
X147476191Y-115678628D02*
X147476191Y-115964342D01*
X147476191Y-115964342D02*
X147523810Y-116059580D01*
X147523810Y-116059580D02*
X147571429Y-116107200D01*
X147571429Y-116107200D02*
X147666667Y-116154819D01*
X147666667Y-116154819D02*
X147809524Y-116154819D01*
X146904762Y-116154819D02*
X147000000Y-116107200D01*
X147000000Y-116107200D02*
X147047619Y-116011961D01*
X147047619Y-116011961D02*
X147047619Y-115154819D01*
X146095238Y-116154819D02*
X146095238Y-115154819D01*
X146095238Y-116107200D02*
X146190476Y-116154819D01*
X146190476Y-116154819D02*
X146380952Y-116154819D01*
X146380952Y-116154819D02*
X146476190Y-116107200D01*
X146476190Y-116107200D02*
X146523809Y-116059580D01*
X146523809Y-116059580D02*
X146571428Y-115964342D01*
X146571428Y-115964342D02*
X146571428Y-115678628D01*
X146571428Y-115678628D02*
X146523809Y-115583390D01*
X146523809Y-115583390D02*
X146476190Y-115535771D01*
X146476190Y-115535771D02*
X146380952Y-115488152D01*
X146380952Y-115488152D02*
X146190476Y-115488152D01*
X146190476Y-115488152D02*
X146095238Y-115535771D01*
X145238095Y-116107200D02*
X145333333Y-116154819D01*
X145333333Y-116154819D02*
X145523809Y-116154819D01*
X145523809Y-116154819D02*
X145619047Y-116107200D01*
X145619047Y-116107200D02*
X145666666Y-116011961D01*
X145666666Y-116011961D02*
X145666666Y-115631009D01*
X145666666Y-115631009D02*
X145619047Y-115535771D01*
X145619047Y-115535771D02*
X145523809Y-115488152D01*
X145523809Y-115488152D02*
X145333333Y-115488152D01*
X145333333Y-115488152D02*
X145238095Y-115535771D01*
X145238095Y-115535771D02*
X145190476Y-115631009D01*
X145190476Y-115631009D02*
X145190476Y-115726247D01*
X145190476Y-115726247D02*
X145666666Y-115821485D01*
X144761904Y-116154819D02*
X144761904Y-115488152D01*
X144761904Y-115678628D02*
X144714285Y-115583390D01*
X144714285Y-115583390D02*
X144666666Y-115535771D01*
X144666666Y-115535771D02*
X144571428Y-115488152D01*
X144571428Y-115488152D02*
X144476190Y-115488152D01*
X143857142Y-115154819D02*
X143857142Y-115869104D01*
X143857142Y-115869104D02*
X143904761Y-116011961D01*
X143904761Y-116011961D02*
X143999999Y-116107200D01*
X143999999Y-116107200D02*
X144142856Y-116154819D01*
X144142856Y-116154819D02*
X144238094Y-116154819D01*
X142952380Y-115488152D02*
X142952380Y-116154819D01*
X143380951Y-115488152D02*
X143380951Y-116011961D01*
X143380951Y-116011961D02*
X143333332Y-116107200D01*
X143333332Y-116107200D02*
X143238094Y-116154819D01*
X143238094Y-116154819D02*
X143095237Y-116154819D01*
X143095237Y-116154819D02*
X142999999Y-116107200D01*
X142999999Y-116107200D02*
X142952380Y-116059580D01*
X142476189Y-116154819D02*
X142476189Y-115488152D01*
X142476189Y-115583390D02*
X142428570Y-115535771D01*
X142428570Y-115535771D02*
X142333332Y-115488152D01*
X142333332Y-115488152D02*
X142190475Y-115488152D01*
X142190475Y-115488152D02*
X142095237Y-115535771D01*
X142095237Y-115535771D02*
X142047618Y-115631009D01*
X142047618Y-115631009D02*
X142047618Y-116154819D01*
X142047618Y-115631009D02*
X141999999Y-115535771D01*
X141999999Y-115535771D02*
X141904761Y-115488152D01*
X141904761Y-115488152D02*
X141761904Y-115488152D01*
X141761904Y-115488152D02*
X141666665Y-115535771D01*
X141666665Y-115535771D02*
X141619046Y-115631009D01*
X141619046Y-115631009D02*
X141619046Y-116154819D01*
X141142856Y-115488152D02*
X141142856Y-116488152D01*
X141142856Y-115535771D02*
X141047618Y-115488152D01*
X141047618Y-115488152D02*
X140857142Y-115488152D01*
X140857142Y-115488152D02*
X140761904Y-115535771D01*
X140761904Y-115535771D02*
X140714285Y-115583390D01*
X140714285Y-115583390D02*
X140666666Y-115678628D01*
X140666666Y-115678628D02*
X140666666Y-115964342D01*
X140666666Y-115964342D02*
X140714285Y-116059580D01*
X140714285Y-116059580D02*
X140761904Y-116107200D01*
X140761904Y-116107200D02*
X140857142Y-116154819D01*
X140857142Y-116154819D02*
X141047618Y-116154819D01*
X141047618Y-116154819D02*
X141142856Y-116107200D01*
X139857142Y-116107200D02*
X139952380Y-116154819D01*
X139952380Y-116154819D02*
X140142856Y-116154819D01*
X140142856Y-116154819D02*
X140238094Y-116107200D01*
X140238094Y-116107200D02*
X140285713Y-116011961D01*
X140285713Y-116011961D02*
X140285713Y-115631009D01*
X140285713Y-115631009D02*
X140238094Y-115535771D01*
X140238094Y-115535771D02*
X140142856Y-115488152D01*
X140142856Y-115488152D02*
X139952380Y-115488152D01*
X139952380Y-115488152D02*
X139857142Y-115535771D01*
X139857142Y-115535771D02*
X139809523Y-115631009D01*
X139809523Y-115631009D02*
X139809523Y-115726247D01*
X139809523Y-115726247D02*
X140285713Y-115821485D01*
X139380951Y-116154819D02*
X139380951Y-115488152D01*
X139380951Y-115678628D02*
X139333332Y-115583390D01*
X139333332Y-115583390D02*
X139285713Y-115535771D01*
X139285713Y-115535771D02*
X139190475Y-115488152D01*
X139190475Y-115488152D02*
X139095237Y-115488152D01*
X138999999Y-116250057D02*
X138238094Y-116250057D01*
X138047617Y-115250057D02*
X137999998Y-115202438D01*
X137999998Y-115202438D02*
X137904760Y-115154819D01*
X137904760Y-115154819D02*
X137666665Y-115154819D01*
X137666665Y-115154819D02*
X137571427Y-115202438D01*
X137571427Y-115202438D02*
X137523808Y-115250057D01*
X137523808Y-115250057D02*
X137476189Y-115345295D01*
X137476189Y-115345295D02*
X137476189Y-115440533D01*
X137476189Y-115440533D02*
X137523808Y-115583390D01*
X137523808Y-115583390D02*
X138095236Y-116154819D01*
X138095236Y-116154819D02*
X137476189Y-116154819D01*
X137285713Y-116250057D02*
X136523808Y-116250057D01*
X135952379Y-115631009D02*
X135809522Y-115678628D01*
X135809522Y-115678628D02*
X135761903Y-115726247D01*
X135761903Y-115726247D02*
X135714284Y-115821485D01*
X135714284Y-115821485D02*
X135714284Y-115964342D01*
X135714284Y-115964342D02*
X135761903Y-116059580D01*
X135761903Y-116059580D02*
X135809522Y-116107200D01*
X135809522Y-116107200D02*
X135904760Y-116154819D01*
X135904760Y-116154819D02*
X136285712Y-116154819D01*
X136285712Y-116154819D02*
X136285712Y-115154819D01*
X136285712Y-115154819D02*
X135952379Y-115154819D01*
X135952379Y-115154819D02*
X135857141Y-115202438D01*
X135857141Y-115202438D02*
X135809522Y-115250057D01*
X135809522Y-115250057D02*
X135761903Y-115345295D01*
X135761903Y-115345295D02*
X135761903Y-115440533D01*
X135761903Y-115440533D02*
X135809522Y-115535771D01*
X135809522Y-115535771D02*
X135857141Y-115583390D01*
X135857141Y-115583390D02*
X135952379Y-115631009D01*
X135952379Y-115631009D02*
X136285712Y-115631009D01*
X135285712Y-116154819D02*
X135285712Y-115488152D01*
X135285712Y-115678628D02*
X135238093Y-115583390D01*
X135238093Y-115583390D02*
X135190474Y-115535771D01*
X135190474Y-115535771D02*
X135095236Y-115488152D01*
X135095236Y-115488152D02*
X134999998Y-115488152D01*
X134666664Y-116154819D02*
X134666664Y-115488152D01*
X134666664Y-115154819D02*
X134714283Y-115202438D01*
X134714283Y-115202438D02*
X134666664Y-115250057D01*
X134666664Y-115250057D02*
X134619045Y-115202438D01*
X134619045Y-115202438D02*
X134666664Y-115154819D01*
X134666664Y-115154819D02*
X134666664Y-115250057D01*
X133761903Y-116154819D02*
X133761903Y-115154819D01*
X133761903Y-116107200D02*
X133857141Y-116154819D01*
X133857141Y-116154819D02*
X134047617Y-116154819D01*
X134047617Y-116154819D02*
X134142855Y-116107200D01*
X134142855Y-116107200D02*
X134190474Y-116059580D01*
X134190474Y-116059580D02*
X134238093Y-115964342D01*
X134238093Y-115964342D02*
X134238093Y-115678628D01*
X134238093Y-115678628D02*
X134190474Y-115583390D01*
X134190474Y-115583390D02*
X134142855Y-115535771D01*
X134142855Y-115535771D02*
X134047617Y-115488152D01*
X134047617Y-115488152D02*
X133857141Y-115488152D01*
X133857141Y-115488152D02*
X133761903Y-115535771D01*
X132857141Y-115488152D02*
X132857141Y-116297676D01*
X132857141Y-116297676D02*
X132904760Y-116392914D01*
X132904760Y-116392914D02*
X132952379Y-116440533D01*
X132952379Y-116440533D02*
X133047617Y-116488152D01*
X133047617Y-116488152D02*
X133190474Y-116488152D01*
X133190474Y-116488152D02*
X133285712Y-116440533D01*
X132857141Y-116107200D02*
X132952379Y-116154819D01*
X132952379Y-116154819D02*
X133142855Y-116154819D01*
X133142855Y-116154819D02*
X133238093Y-116107200D01*
X133238093Y-116107200D02*
X133285712Y-116059580D01*
X133285712Y-116059580D02*
X133333331Y-115964342D01*
X133333331Y-115964342D02*
X133333331Y-115678628D01*
X133333331Y-115678628D02*
X133285712Y-115583390D01*
X133285712Y-115583390D02*
X133238093Y-115535771D01*
X133238093Y-115535771D02*
X133142855Y-115488152D01*
X133142855Y-115488152D02*
X132952379Y-115488152D01*
X132952379Y-115488152D02*
X132857141Y-115535771D01*
X131999998Y-116107200D02*
X132095236Y-116154819D01*
X132095236Y-116154819D02*
X132285712Y-116154819D01*
X132285712Y-116154819D02*
X132380950Y-116107200D01*
X132380950Y-116107200D02*
X132428569Y-116011961D01*
X132428569Y-116011961D02*
X132428569Y-115631009D01*
X132428569Y-115631009D02*
X132380950Y-115535771D01*
X132380950Y-115535771D02*
X132285712Y-115488152D01*
X132285712Y-115488152D02*
X132095236Y-115488152D01*
X132095236Y-115488152D02*
X131999998Y-115535771D01*
X131999998Y-115535771D02*
X131952379Y-115631009D01*
X131952379Y-115631009D02*
X131952379Y-115726247D01*
X131952379Y-115726247D02*
X132428569Y-115821485D01*
X131095236Y-116154819D02*
X131095236Y-115154819D01*
X131095236Y-116107200D02*
X131190474Y-116154819D01*
X131190474Y-116154819D02*
X131380950Y-116154819D01*
X131380950Y-116154819D02*
X131476188Y-116107200D01*
X131476188Y-116107200D02*
X131523807Y-116059580D01*
X131523807Y-116059580D02*
X131571426Y-115964342D01*
X131571426Y-115964342D02*
X131571426Y-115678628D01*
X131571426Y-115678628D02*
X131523807Y-115583390D01*
X131523807Y-115583390D02*
X131476188Y-115535771D01*
X131476188Y-115535771D02*
X131380950Y-115488152D01*
X131380950Y-115488152D02*
X131190474Y-115488152D01*
X131190474Y-115488152D02*
X131095236Y-115535771D01*
X148952381Y-121307200D02*
X148809524Y-121354819D01*
X148809524Y-121354819D02*
X148571429Y-121354819D01*
X148571429Y-121354819D02*
X148476191Y-121307200D01*
X148476191Y-121307200D02*
X148428572Y-121259580D01*
X148428572Y-121259580D02*
X148380953Y-121164342D01*
X148380953Y-121164342D02*
X148380953Y-121069104D01*
X148380953Y-121069104D02*
X148428572Y-120973866D01*
X148428572Y-120973866D02*
X148476191Y-120926247D01*
X148476191Y-120926247D02*
X148571429Y-120878628D01*
X148571429Y-120878628D02*
X148761905Y-120831009D01*
X148761905Y-120831009D02*
X148857143Y-120783390D01*
X148857143Y-120783390D02*
X148904762Y-120735771D01*
X148904762Y-120735771D02*
X148952381Y-120640533D01*
X148952381Y-120640533D02*
X148952381Y-120545295D01*
X148952381Y-120545295D02*
X148904762Y-120450057D01*
X148904762Y-120450057D02*
X148857143Y-120402438D01*
X148857143Y-120402438D02*
X148761905Y-120354819D01*
X148761905Y-120354819D02*
X148523810Y-120354819D01*
X148523810Y-120354819D02*
X148380953Y-120402438D01*
X147809524Y-121354819D02*
X147904762Y-121307200D01*
X147904762Y-121307200D02*
X147952381Y-121259580D01*
X147952381Y-121259580D02*
X148000000Y-121164342D01*
X148000000Y-121164342D02*
X148000000Y-120878628D01*
X148000000Y-120878628D02*
X147952381Y-120783390D01*
X147952381Y-120783390D02*
X147904762Y-120735771D01*
X147904762Y-120735771D02*
X147809524Y-120688152D01*
X147809524Y-120688152D02*
X147666667Y-120688152D01*
X147666667Y-120688152D02*
X147571429Y-120735771D01*
X147571429Y-120735771D02*
X147523810Y-120783390D01*
X147523810Y-120783390D02*
X147476191Y-120878628D01*
X147476191Y-120878628D02*
X147476191Y-121164342D01*
X147476191Y-121164342D02*
X147523810Y-121259580D01*
X147523810Y-121259580D02*
X147571429Y-121307200D01*
X147571429Y-121307200D02*
X147666667Y-121354819D01*
X147666667Y-121354819D02*
X147809524Y-121354819D01*
X146904762Y-121354819D02*
X147000000Y-121307200D01*
X147000000Y-121307200D02*
X147047619Y-121211961D01*
X147047619Y-121211961D02*
X147047619Y-120354819D01*
X146095238Y-121354819D02*
X146095238Y-120354819D01*
X146095238Y-121307200D02*
X146190476Y-121354819D01*
X146190476Y-121354819D02*
X146380952Y-121354819D01*
X146380952Y-121354819D02*
X146476190Y-121307200D01*
X146476190Y-121307200D02*
X146523809Y-121259580D01*
X146523809Y-121259580D02*
X146571428Y-121164342D01*
X146571428Y-121164342D02*
X146571428Y-120878628D01*
X146571428Y-120878628D02*
X146523809Y-120783390D01*
X146523809Y-120783390D02*
X146476190Y-120735771D01*
X146476190Y-120735771D02*
X146380952Y-120688152D01*
X146380952Y-120688152D02*
X146190476Y-120688152D01*
X146190476Y-120688152D02*
X146095238Y-120735771D01*
X145238095Y-121307200D02*
X145333333Y-121354819D01*
X145333333Y-121354819D02*
X145523809Y-121354819D01*
X145523809Y-121354819D02*
X145619047Y-121307200D01*
X145619047Y-121307200D02*
X145666666Y-121211961D01*
X145666666Y-121211961D02*
X145666666Y-120831009D01*
X145666666Y-120831009D02*
X145619047Y-120735771D01*
X145619047Y-120735771D02*
X145523809Y-120688152D01*
X145523809Y-120688152D02*
X145333333Y-120688152D01*
X145333333Y-120688152D02*
X145238095Y-120735771D01*
X145238095Y-120735771D02*
X145190476Y-120831009D01*
X145190476Y-120831009D02*
X145190476Y-120926247D01*
X145190476Y-120926247D02*
X145666666Y-121021485D01*
X144761904Y-121354819D02*
X144761904Y-120688152D01*
X144761904Y-120878628D02*
X144714285Y-120783390D01*
X144714285Y-120783390D02*
X144666666Y-120735771D01*
X144666666Y-120735771D02*
X144571428Y-120688152D01*
X144571428Y-120688152D02*
X144476190Y-120688152D01*
X143857142Y-120354819D02*
X143857142Y-121069104D01*
X143857142Y-121069104D02*
X143904761Y-121211961D01*
X143904761Y-121211961D02*
X143999999Y-121307200D01*
X143999999Y-121307200D02*
X144142856Y-121354819D01*
X144142856Y-121354819D02*
X144238094Y-121354819D01*
X142952380Y-120688152D02*
X142952380Y-121354819D01*
X143380951Y-120688152D02*
X143380951Y-121211961D01*
X143380951Y-121211961D02*
X143333332Y-121307200D01*
X143333332Y-121307200D02*
X143238094Y-121354819D01*
X143238094Y-121354819D02*
X143095237Y-121354819D01*
X143095237Y-121354819D02*
X142999999Y-121307200D01*
X142999999Y-121307200D02*
X142952380Y-121259580D01*
X142476189Y-121354819D02*
X142476189Y-120688152D01*
X142476189Y-120783390D02*
X142428570Y-120735771D01*
X142428570Y-120735771D02*
X142333332Y-120688152D01*
X142333332Y-120688152D02*
X142190475Y-120688152D01*
X142190475Y-120688152D02*
X142095237Y-120735771D01*
X142095237Y-120735771D02*
X142047618Y-120831009D01*
X142047618Y-120831009D02*
X142047618Y-121354819D01*
X142047618Y-120831009D02*
X141999999Y-120735771D01*
X141999999Y-120735771D02*
X141904761Y-120688152D01*
X141904761Y-120688152D02*
X141761904Y-120688152D01*
X141761904Y-120688152D02*
X141666665Y-120735771D01*
X141666665Y-120735771D02*
X141619046Y-120831009D01*
X141619046Y-120831009D02*
X141619046Y-121354819D01*
X141142856Y-120688152D02*
X141142856Y-121688152D01*
X141142856Y-120735771D02*
X141047618Y-120688152D01*
X141047618Y-120688152D02*
X140857142Y-120688152D01*
X140857142Y-120688152D02*
X140761904Y-120735771D01*
X140761904Y-120735771D02*
X140714285Y-120783390D01*
X140714285Y-120783390D02*
X140666666Y-120878628D01*
X140666666Y-120878628D02*
X140666666Y-121164342D01*
X140666666Y-121164342D02*
X140714285Y-121259580D01*
X140714285Y-121259580D02*
X140761904Y-121307200D01*
X140761904Y-121307200D02*
X140857142Y-121354819D01*
X140857142Y-121354819D02*
X141047618Y-121354819D01*
X141047618Y-121354819D02*
X141142856Y-121307200D01*
X139857142Y-121307200D02*
X139952380Y-121354819D01*
X139952380Y-121354819D02*
X140142856Y-121354819D01*
X140142856Y-121354819D02*
X140238094Y-121307200D01*
X140238094Y-121307200D02*
X140285713Y-121211961D01*
X140285713Y-121211961D02*
X140285713Y-120831009D01*
X140285713Y-120831009D02*
X140238094Y-120735771D01*
X140238094Y-120735771D02*
X140142856Y-120688152D01*
X140142856Y-120688152D02*
X139952380Y-120688152D01*
X139952380Y-120688152D02*
X139857142Y-120735771D01*
X139857142Y-120735771D02*
X139809523Y-120831009D01*
X139809523Y-120831009D02*
X139809523Y-120926247D01*
X139809523Y-120926247D02*
X140285713Y-121021485D01*
X139380951Y-121354819D02*
X139380951Y-120688152D01*
X139380951Y-120878628D02*
X139333332Y-120783390D01*
X139333332Y-120783390D02*
X139285713Y-120735771D01*
X139285713Y-120735771D02*
X139190475Y-120688152D01*
X139190475Y-120688152D02*
X139095237Y-120688152D01*
X138999999Y-121450057D02*
X138238094Y-121450057D01*
X138047617Y-120450057D02*
X137999998Y-120402438D01*
X137999998Y-120402438D02*
X137904760Y-120354819D01*
X137904760Y-120354819D02*
X137666665Y-120354819D01*
X137666665Y-120354819D02*
X137571427Y-120402438D01*
X137571427Y-120402438D02*
X137523808Y-120450057D01*
X137523808Y-120450057D02*
X137476189Y-120545295D01*
X137476189Y-120545295D02*
X137476189Y-120640533D01*
X137476189Y-120640533D02*
X137523808Y-120783390D01*
X137523808Y-120783390D02*
X138095236Y-121354819D01*
X138095236Y-121354819D02*
X137476189Y-121354819D01*
X137285713Y-121450057D02*
X136523808Y-121450057D01*
X135952379Y-120831009D02*
X135809522Y-120878628D01*
X135809522Y-120878628D02*
X135761903Y-120926247D01*
X135761903Y-120926247D02*
X135714284Y-121021485D01*
X135714284Y-121021485D02*
X135714284Y-121164342D01*
X135714284Y-121164342D02*
X135761903Y-121259580D01*
X135761903Y-121259580D02*
X135809522Y-121307200D01*
X135809522Y-121307200D02*
X135904760Y-121354819D01*
X135904760Y-121354819D02*
X136285712Y-121354819D01*
X136285712Y-121354819D02*
X136285712Y-120354819D01*
X136285712Y-120354819D02*
X135952379Y-120354819D01*
X135952379Y-120354819D02*
X135857141Y-120402438D01*
X135857141Y-120402438D02*
X135809522Y-120450057D01*
X135809522Y-120450057D02*
X135761903Y-120545295D01*
X135761903Y-120545295D02*
X135761903Y-120640533D01*
X135761903Y-120640533D02*
X135809522Y-120735771D01*
X135809522Y-120735771D02*
X135857141Y-120783390D01*
X135857141Y-120783390D02*
X135952379Y-120831009D01*
X135952379Y-120831009D02*
X136285712Y-120831009D01*
X135285712Y-121354819D02*
X135285712Y-120688152D01*
X135285712Y-120878628D02*
X135238093Y-120783390D01*
X135238093Y-120783390D02*
X135190474Y-120735771D01*
X135190474Y-120735771D02*
X135095236Y-120688152D01*
X135095236Y-120688152D02*
X134999998Y-120688152D01*
X134666664Y-121354819D02*
X134666664Y-120688152D01*
X134666664Y-120354819D02*
X134714283Y-120402438D01*
X134714283Y-120402438D02*
X134666664Y-120450057D01*
X134666664Y-120450057D02*
X134619045Y-120402438D01*
X134619045Y-120402438D02*
X134666664Y-120354819D01*
X134666664Y-120354819D02*
X134666664Y-120450057D01*
X133761903Y-121354819D02*
X133761903Y-120354819D01*
X133761903Y-121307200D02*
X133857141Y-121354819D01*
X133857141Y-121354819D02*
X134047617Y-121354819D01*
X134047617Y-121354819D02*
X134142855Y-121307200D01*
X134142855Y-121307200D02*
X134190474Y-121259580D01*
X134190474Y-121259580D02*
X134238093Y-121164342D01*
X134238093Y-121164342D02*
X134238093Y-120878628D01*
X134238093Y-120878628D02*
X134190474Y-120783390D01*
X134190474Y-120783390D02*
X134142855Y-120735771D01*
X134142855Y-120735771D02*
X134047617Y-120688152D01*
X134047617Y-120688152D02*
X133857141Y-120688152D01*
X133857141Y-120688152D02*
X133761903Y-120735771D01*
X132857141Y-120688152D02*
X132857141Y-121497676D01*
X132857141Y-121497676D02*
X132904760Y-121592914D01*
X132904760Y-121592914D02*
X132952379Y-121640533D01*
X132952379Y-121640533D02*
X133047617Y-121688152D01*
X133047617Y-121688152D02*
X133190474Y-121688152D01*
X133190474Y-121688152D02*
X133285712Y-121640533D01*
X132857141Y-121307200D02*
X132952379Y-121354819D01*
X132952379Y-121354819D02*
X133142855Y-121354819D01*
X133142855Y-121354819D02*
X133238093Y-121307200D01*
X133238093Y-121307200D02*
X133285712Y-121259580D01*
X133285712Y-121259580D02*
X133333331Y-121164342D01*
X133333331Y-121164342D02*
X133333331Y-120878628D01*
X133333331Y-120878628D02*
X133285712Y-120783390D01*
X133285712Y-120783390D02*
X133238093Y-120735771D01*
X133238093Y-120735771D02*
X133142855Y-120688152D01*
X133142855Y-120688152D02*
X132952379Y-120688152D01*
X132952379Y-120688152D02*
X132857141Y-120735771D01*
X131999998Y-121307200D02*
X132095236Y-121354819D01*
X132095236Y-121354819D02*
X132285712Y-121354819D01*
X132285712Y-121354819D02*
X132380950Y-121307200D01*
X132380950Y-121307200D02*
X132428569Y-121211961D01*
X132428569Y-121211961D02*
X132428569Y-120831009D01*
X132428569Y-120831009D02*
X132380950Y-120735771D01*
X132380950Y-120735771D02*
X132285712Y-120688152D01*
X132285712Y-120688152D02*
X132095236Y-120688152D01*
X132095236Y-120688152D02*
X131999998Y-120735771D01*
X131999998Y-120735771D02*
X131952379Y-120831009D01*
X131952379Y-120831009D02*
X131952379Y-120926247D01*
X131952379Y-120926247D02*
X132428569Y-121021485D01*
X131095236Y-121354819D02*
X131095236Y-120354819D01*
X131095236Y-121307200D02*
X131190474Y-121354819D01*
X131190474Y-121354819D02*
X131380950Y-121354819D01*
X131380950Y-121354819D02*
X131476188Y-121307200D01*
X131476188Y-121307200D02*
X131523807Y-121259580D01*
X131523807Y-121259580D02*
X131571426Y-121164342D01*
X131571426Y-121164342D02*
X131571426Y-120878628D01*
X131571426Y-120878628D02*
X131523807Y-120783390D01*
X131523807Y-120783390D02*
X131476188Y-120735771D01*
X131476188Y-120735771D02*
X131380950Y-120688152D01*
X131380950Y-120688152D02*
X131190474Y-120688152D01*
X131190474Y-120688152D02*
X131095236Y-120735771D01*
X148952381Y-123907200D02*
X148809524Y-123954819D01*
X148809524Y-123954819D02*
X148571429Y-123954819D01*
X148571429Y-123954819D02*
X148476191Y-123907200D01*
X148476191Y-123907200D02*
X148428572Y-123859580D01*
X148428572Y-123859580D02*
X148380953Y-123764342D01*
X148380953Y-123764342D02*
X148380953Y-123669104D01*
X148380953Y-123669104D02*
X148428572Y-123573866D01*
X148428572Y-123573866D02*
X148476191Y-123526247D01*
X148476191Y-123526247D02*
X148571429Y-123478628D01*
X148571429Y-123478628D02*
X148761905Y-123431009D01*
X148761905Y-123431009D02*
X148857143Y-123383390D01*
X148857143Y-123383390D02*
X148904762Y-123335771D01*
X148904762Y-123335771D02*
X148952381Y-123240533D01*
X148952381Y-123240533D02*
X148952381Y-123145295D01*
X148952381Y-123145295D02*
X148904762Y-123050057D01*
X148904762Y-123050057D02*
X148857143Y-123002438D01*
X148857143Y-123002438D02*
X148761905Y-122954819D01*
X148761905Y-122954819D02*
X148523810Y-122954819D01*
X148523810Y-122954819D02*
X148380953Y-123002438D01*
X147809524Y-123954819D02*
X147904762Y-123907200D01*
X147904762Y-123907200D02*
X147952381Y-123859580D01*
X147952381Y-123859580D02*
X148000000Y-123764342D01*
X148000000Y-123764342D02*
X148000000Y-123478628D01*
X148000000Y-123478628D02*
X147952381Y-123383390D01*
X147952381Y-123383390D02*
X147904762Y-123335771D01*
X147904762Y-123335771D02*
X147809524Y-123288152D01*
X147809524Y-123288152D02*
X147666667Y-123288152D01*
X147666667Y-123288152D02*
X147571429Y-123335771D01*
X147571429Y-123335771D02*
X147523810Y-123383390D01*
X147523810Y-123383390D02*
X147476191Y-123478628D01*
X147476191Y-123478628D02*
X147476191Y-123764342D01*
X147476191Y-123764342D02*
X147523810Y-123859580D01*
X147523810Y-123859580D02*
X147571429Y-123907200D01*
X147571429Y-123907200D02*
X147666667Y-123954819D01*
X147666667Y-123954819D02*
X147809524Y-123954819D01*
X146904762Y-123954819D02*
X147000000Y-123907200D01*
X147000000Y-123907200D02*
X147047619Y-123811961D01*
X147047619Y-123811961D02*
X147047619Y-122954819D01*
X146095238Y-123954819D02*
X146095238Y-122954819D01*
X146095238Y-123907200D02*
X146190476Y-123954819D01*
X146190476Y-123954819D02*
X146380952Y-123954819D01*
X146380952Y-123954819D02*
X146476190Y-123907200D01*
X146476190Y-123907200D02*
X146523809Y-123859580D01*
X146523809Y-123859580D02*
X146571428Y-123764342D01*
X146571428Y-123764342D02*
X146571428Y-123478628D01*
X146571428Y-123478628D02*
X146523809Y-123383390D01*
X146523809Y-123383390D02*
X146476190Y-123335771D01*
X146476190Y-123335771D02*
X146380952Y-123288152D01*
X146380952Y-123288152D02*
X146190476Y-123288152D01*
X146190476Y-123288152D02*
X146095238Y-123335771D01*
X145238095Y-123907200D02*
X145333333Y-123954819D01*
X145333333Y-123954819D02*
X145523809Y-123954819D01*
X145523809Y-123954819D02*
X145619047Y-123907200D01*
X145619047Y-123907200D02*
X145666666Y-123811961D01*
X145666666Y-123811961D02*
X145666666Y-123431009D01*
X145666666Y-123431009D02*
X145619047Y-123335771D01*
X145619047Y-123335771D02*
X145523809Y-123288152D01*
X145523809Y-123288152D02*
X145333333Y-123288152D01*
X145333333Y-123288152D02*
X145238095Y-123335771D01*
X145238095Y-123335771D02*
X145190476Y-123431009D01*
X145190476Y-123431009D02*
X145190476Y-123526247D01*
X145190476Y-123526247D02*
X145666666Y-123621485D01*
X144761904Y-123954819D02*
X144761904Y-123288152D01*
X144761904Y-123478628D02*
X144714285Y-123383390D01*
X144714285Y-123383390D02*
X144666666Y-123335771D01*
X144666666Y-123335771D02*
X144571428Y-123288152D01*
X144571428Y-123288152D02*
X144476190Y-123288152D01*
X143857142Y-122954819D02*
X143857142Y-123669104D01*
X143857142Y-123669104D02*
X143904761Y-123811961D01*
X143904761Y-123811961D02*
X143999999Y-123907200D01*
X143999999Y-123907200D02*
X144142856Y-123954819D01*
X144142856Y-123954819D02*
X144238094Y-123954819D01*
X142952380Y-123288152D02*
X142952380Y-123954819D01*
X143380951Y-123288152D02*
X143380951Y-123811961D01*
X143380951Y-123811961D02*
X143333332Y-123907200D01*
X143333332Y-123907200D02*
X143238094Y-123954819D01*
X143238094Y-123954819D02*
X143095237Y-123954819D01*
X143095237Y-123954819D02*
X142999999Y-123907200D01*
X142999999Y-123907200D02*
X142952380Y-123859580D01*
X142476189Y-123954819D02*
X142476189Y-123288152D01*
X142476189Y-123383390D02*
X142428570Y-123335771D01*
X142428570Y-123335771D02*
X142333332Y-123288152D01*
X142333332Y-123288152D02*
X142190475Y-123288152D01*
X142190475Y-123288152D02*
X142095237Y-123335771D01*
X142095237Y-123335771D02*
X142047618Y-123431009D01*
X142047618Y-123431009D02*
X142047618Y-123954819D01*
X142047618Y-123431009D02*
X141999999Y-123335771D01*
X141999999Y-123335771D02*
X141904761Y-123288152D01*
X141904761Y-123288152D02*
X141761904Y-123288152D01*
X141761904Y-123288152D02*
X141666665Y-123335771D01*
X141666665Y-123335771D02*
X141619046Y-123431009D01*
X141619046Y-123431009D02*
X141619046Y-123954819D01*
X141142856Y-123288152D02*
X141142856Y-124288152D01*
X141142856Y-123335771D02*
X141047618Y-123288152D01*
X141047618Y-123288152D02*
X140857142Y-123288152D01*
X140857142Y-123288152D02*
X140761904Y-123335771D01*
X140761904Y-123335771D02*
X140714285Y-123383390D01*
X140714285Y-123383390D02*
X140666666Y-123478628D01*
X140666666Y-123478628D02*
X140666666Y-123764342D01*
X140666666Y-123764342D02*
X140714285Y-123859580D01*
X140714285Y-123859580D02*
X140761904Y-123907200D01*
X140761904Y-123907200D02*
X140857142Y-123954819D01*
X140857142Y-123954819D02*
X141047618Y-123954819D01*
X141047618Y-123954819D02*
X141142856Y-123907200D01*
X139857142Y-123907200D02*
X139952380Y-123954819D01*
X139952380Y-123954819D02*
X140142856Y-123954819D01*
X140142856Y-123954819D02*
X140238094Y-123907200D01*
X140238094Y-123907200D02*
X140285713Y-123811961D01*
X140285713Y-123811961D02*
X140285713Y-123431009D01*
X140285713Y-123431009D02*
X140238094Y-123335771D01*
X140238094Y-123335771D02*
X140142856Y-123288152D01*
X140142856Y-123288152D02*
X139952380Y-123288152D01*
X139952380Y-123288152D02*
X139857142Y-123335771D01*
X139857142Y-123335771D02*
X139809523Y-123431009D01*
X139809523Y-123431009D02*
X139809523Y-123526247D01*
X139809523Y-123526247D02*
X140285713Y-123621485D01*
X139380951Y-123954819D02*
X139380951Y-123288152D01*
X139380951Y-123478628D02*
X139333332Y-123383390D01*
X139333332Y-123383390D02*
X139285713Y-123335771D01*
X139285713Y-123335771D02*
X139190475Y-123288152D01*
X139190475Y-123288152D02*
X139095237Y-123288152D01*
X138999999Y-124050057D02*
X138238094Y-124050057D01*
X138047617Y-123050057D02*
X137999998Y-123002438D01*
X137999998Y-123002438D02*
X137904760Y-122954819D01*
X137904760Y-122954819D02*
X137666665Y-122954819D01*
X137666665Y-122954819D02*
X137571427Y-123002438D01*
X137571427Y-123002438D02*
X137523808Y-123050057D01*
X137523808Y-123050057D02*
X137476189Y-123145295D01*
X137476189Y-123145295D02*
X137476189Y-123240533D01*
X137476189Y-123240533D02*
X137523808Y-123383390D01*
X137523808Y-123383390D02*
X138095236Y-123954819D01*
X138095236Y-123954819D02*
X137476189Y-123954819D01*
X137285713Y-124050057D02*
X136523808Y-124050057D01*
X135952379Y-123431009D02*
X135809522Y-123478628D01*
X135809522Y-123478628D02*
X135761903Y-123526247D01*
X135761903Y-123526247D02*
X135714284Y-123621485D01*
X135714284Y-123621485D02*
X135714284Y-123764342D01*
X135714284Y-123764342D02*
X135761903Y-123859580D01*
X135761903Y-123859580D02*
X135809522Y-123907200D01*
X135809522Y-123907200D02*
X135904760Y-123954819D01*
X135904760Y-123954819D02*
X136285712Y-123954819D01*
X136285712Y-123954819D02*
X136285712Y-122954819D01*
X136285712Y-122954819D02*
X135952379Y-122954819D01*
X135952379Y-122954819D02*
X135857141Y-123002438D01*
X135857141Y-123002438D02*
X135809522Y-123050057D01*
X135809522Y-123050057D02*
X135761903Y-123145295D01*
X135761903Y-123145295D02*
X135761903Y-123240533D01*
X135761903Y-123240533D02*
X135809522Y-123335771D01*
X135809522Y-123335771D02*
X135857141Y-123383390D01*
X135857141Y-123383390D02*
X135952379Y-123431009D01*
X135952379Y-123431009D02*
X136285712Y-123431009D01*
X135285712Y-123954819D02*
X135285712Y-123288152D01*
X135285712Y-123478628D02*
X135238093Y-123383390D01*
X135238093Y-123383390D02*
X135190474Y-123335771D01*
X135190474Y-123335771D02*
X135095236Y-123288152D01*
X135095236Y-123288152D02*
X134999998Y-123288152D01*
X134666664Y-123954819D02*
X134666664Y-123288152D01*
X134666664Y-122954819D02*
X134714283Y-123002438D01*
X134714283Y-123002438D02*
X134666664Y-123050057D01*
X134666664Y-123050057D02*
X134619045Y-123002438D01*
X134619045Y-123002438D02*
X134666664Y-122954819D01*
X134666664Y-122954819D02*
X134666664Y-123050057D01*
X133761903Y-123954819D02*
X133761903Y-122954819D01*
X133761903Y-123907200D02*
X133857141Y-123954819D01*
X133857141Y-123954819D02*
X134047617Y-123954819D01*
X134047617Y-123954819D02*
X134142855Y-123907200D01*
X134142855Y-123907200D02*
X134190474Y-123859580D01*
X134190474Y-123859580D02*
X134238093Y-123764342D01*
X134238093Y-123764342D02*
X134238093Y-123478628D01*
X134238093Y-123478628D02*
X134190474Y-123383390D01*
X134190474Y-123383390D02*
X134142855Y-123335771D01*
X134142855Y-123335771D02*
X134047617Y-123288152D01*
X134047617Y-123288152D02*
X133857141Y-123288152D01*
X133857141Y-123288152D02*
X133761903Y-123335771D01*
X132857141Y-123288152D02*
X132857141Y-124097676D01*
X132857141Y-124097676D02*
X132904760Y-124192914D01*
X132904760Y-124192914D02*
X132952379Y-124240533D01*
X132952379Y-124240533D02*
X133047617Y-124288152D01*
X133047617Y-124288152D02*
X133190474Y-124288152D01*
X133190474Y-124288152D02*
X133285712Y-124240533D01*
X132857141Y-123907200D02*
X132952379Y-123954819D01*
X132952379Y-123954819D02*
X133142855Y-123954819D01*
X133142855Y-123954819D02*
X133238093Y-123907200D01*
X133238093Y-123907200D02*
X133285712Y-123859580D01*
X133285712Y-123859580D02*
X133333331Y-123764342D01*
X133333331Y-123764342D02*
X133333331Y-123478628D01*
X133333331Y-123478628D02*
X133285712Y-123383390D01*
X133285712Y-123383390D02*
X133238093Y-123335771D01*
X133238093Y-123335771D02*
X133142855Y-123288152D01*
X133142855Y-123288152D02*
X132952379Y-123288152D01*
X132952379Y-123288152D02*
X132857141Y-123335771D01*
X131999998Y-123907200D02*
X132095236Y-123954819D01*
X132095236Y-123954819D02*
X132285712Y-123954819D01*
X132285712Y-123954819D02*
X132380950Y-123907200D01*
X132380950Y-123907200D02*
X132428569Y-123811961D01*
X132428569Y-123811961D02*
X132428569Y-123431009D01*
X132428569Y-123431009D02*
X132380950Y-123335771D01*
X132380950Y-123335771D02*
X132285712Y-123288152D01*
X132285712Y-123288152D02*
X132095236Y-123288152D01*
X132095236Y-123288152D02*
X131999998Y-123335771D01*
X131999998Y-123335771D02*
X131952379Y-123431009D01*
X131952379Y-123431009D02*
X131952379Y-123526247D01*
X131952379Y-123526247D02*
X132428569Y-123621485D01*
X131095236Y-123954819D02*
X131095236Y-122954819D01*
X131095236Y-123907200D02*
X131190474Y-123954819D01*
X131190474Y-123954819D02*
X131380950Y-123954819D01*
X131380950Y-123954819D02*
X131476188Y-123907200D01*
X131476188Y-123907200D02*
X131523807Y-123859580D01*
X131523807Y-123859580D02*
X131571426Y-123764342D01*
X131571426Y-123764342D02*
X131571426Y-123478628D01*
X131571426Y-123478628D02*
X131523807Y-123383390D01*
X131523807Y-123383390D02*
X131476188Y-123335771D01*
X131476188Y-123335771D02*
X131380950Y-123288152D01*
X131380950Y-123288152D02*
X131190474Y-123288152D01*
X131190474Y-123288152D02*
X131095236Y-123335771D01*
M02*
