%TF.GenerationSoftware,KiCad,Pcbnew,7.0.7*%
%TF.CreationDate,2024-01-30T18:09:48+01:00*%
%TF.ProjectId,v0.4.4c,76302e34-2e34-4632-9e6b-696361645f70,4c*%
%TF.SameCoordinates,Original*%
%TF.FileFunction,Paste,Top*%
%TF.FilePolarity,Positive*%
%FSLAX46Y46*%
G04 Gerber Fmt 4.6, Leading zero omitted, Abs format (unit mm)*
G04 Created by KiCad (PCBNEW 7.0.7) date 2024-01-30 18:09:48*
%MOMM*%
%LPD*%
G01*
G04 APERTURE LIST*
G04 Aperture macros list*
%AMRoundRect*
0 Rectangle with rounded corners*
0 $1 Rounding radius*
0 $2 $3 $4 $5 $6 $7 $8 $9 X,Y pos of 4 corners*
0 Add a 4 corners polygon primitive as box body*
4,1,4,$2,$3,$4,$5,$6,$7,$8,$9,$2,$3,0*
0 Add four circle primitives for the rounded corners*
1,1,$1+$1,$2,$3*
1,1,$1+$1,$4,$5*
1,1,$1+$1,$6,$7*
1,1,$1+$1,$8,$9*
0 Add four rect primitives between the rounded corners*
20,1,$1+$1,$2,$3,$4,$5,0*
20,1,$1+$1,$4,$5,$6,$7,0*
20,1,$1+$1,$6,$7,$8,$9,0*
20,1,$1+$1,$8,$9,$2,$3,0*%
G04 Aperture macros list end*
%ADD10RoundRect,0.243750X-0.243750X-0.456250X0.243750X-0.456250X0.243750X0.456250X-0.243750X0.456250X0*%
%ADD11RoundRect,0.243750X0.243750X0.456250X-0.243750X0.456250X-0.243750X-0.456250X0.243750X-0.456250X0*%
%ADD12RoundRect,0.250000X1.025000X-0.787500X1.025000X0.787500X-1.025000X0.787500X-1.025000X-0.787500X0*%
%ADD13R,0.600000X0.450000*%
%ADD14RoundRect,0.243750X0.456250X-0.243750X0.456250X0.243750X-0.456250X0.243750X-0.456250X-0.243750X0*%
%ADD15RoundRect,0.243750X-0.456250X0.243750X-0.456250X-0.243750X0.456250X-0.243750X0.456250X0.243750X0*%
%ADD16RoundRect,0.150000X0.825000X0.150000X-0.825000X0.150000X-0.825000X-0.150000X0.825000X-0.150000X0*%
%ADD17R,1.500000X0.600000*%
%ADD18RoundRect,0.150000X-0.825000X-0.150000X0.825000X-0.150000X0.825000X0.150000X-0.825000X0.150000X0*%
%ADD19R,1.550000X0.600000*%
%ADD20R,2.500000X1.800000*%
%ADD21R,2.500000X2.300000*%
%ADD22R,1.000000X1.150000*%
%ADD23R,4.550000X5.250000*%
%ADD24R,4.600000X1.100000*%
%ADD25R,0.800000X0.900000*%
%ADD26RoundRect,0.249999X-0.412501X-0.925001X0.412501X-0.925001X0.412501X0.925001X-0.412501X0.925001X0*%
%ADD27RoundRect,0.249999X-0.325001X-0.450001X0.325001X-0.450001X0.325001X0.450001X-0.325001X0.450001X0*%
%ADD28RoundRect,0.249999X0.312501X1.450001X-0.312501X1.450001X-0.312501X-1.450001X0.312501X-1.450001X0*%
%ADD29RoundRect,0.249999X-0.312501X-1.450001X0.312501X-1.450001X0.312501X1.450001X-0.312501X1.450001X0*%
G04 APERTURE END LIST*
D10*
X140262500Y-131400000D03*
X142137500Y-131400000D03*
X144662500Y-116600000D03*
X146537500Y-116600000D03*
X140262500Y-126900000D03*
X142137500Y-126900000D03*
X140262500Y-129150000D03*
X142137500Y-129150000D03*
X140262500Y-124650000D03*
X142137500Y-124650000D03*
X153362500Y-126900000D03*
X155237500Y-126900000D03*
X153362500Y-129150000D03*
X155237500Y-129150000D03*
X153362500Y-124650000D03*
X155237500Y-124650000D03*
D11*
X197837500Y-112900000D03*
X195962500Y-112900000D03*
D12*
X192659000Y-48750000D03*
X192659000Y-42525000D03*
D11*
X146437500Y-94200000D03*
X144562500Y-94200000D03*
X146437500Y-91700000D03*
X144562500Y-91700000D03*
X121637500Y-93700000D03*
X119762500Y-93700000D03*
X121637500Y-101500000D03*
X119762500Y-101500000D03*
X121637500Y-83700000D03*
X119762500Y-83700000D03*
X121637500Y-91500000D03*
X119762500Y-91500000D03*
D13*
X125250000Y-83700000D03*
X123150000Y-83700000D03*
D10*
X130525000Y-43942000D03*
X132400000Y-43942000D03*
D11*
X118137500Y-93700000D03*
X116262500Y-93700000D03*
X118137500Y-101500000D03*
X116262500Y-101500000D03*
D10*
X141062500Y-94200000D03*
X142937500Y-94200000D03*
X137562500Y-94200000D03*
X139437500Y-94200000D03*
X137562500Y-91700000D03*
X139437500Y-91700000D03*
D11*
X132437500Y-46228000D03*
X130562500Y-46228000D03*
X180737500Y-96700000D03*
X178862500Y-96700000D03*
D10*
X160962500Y-101000000D03*
X162837500Y-101000000D03*
X160962500Y-99000000D03*
X162837500Y-99000000D03*
D11*
X121637500Y-81500000D03*
X119762500Y-81500000D03*
X118137500Y-91500000D03*
X116262500Y-91500000D03*
D10*
X141062500Y-99200000D03*
X142937500Y-99200000D03*
X137562500Y-99200000D03*
X139437500Y-99200000D03*
X137562500Y-96700000D03*
X139437500Y-96700000D03*
X163962500Y-110900000D03*
X165837500Y-110900000D03*
D11*
X169337500Y-108900000D03*
X167462500Y-108900000D03*
D14*
X151000000Y-70937500D03*
X151000000Y-69062500D03*
X153100000Y-70937500D03*
X153100000Y-69062500D03*
X155700000Y-53537500D03*
X155700000Y-51662500D03*
D15*
X157800000Y-51662500D03*
X157800000Y-53537500D03*
D14*
X155900000Y-111237500D03*
X155900000Y-109362500D03*
D11*
X152337500Y-48800000D03*
X150462500Y-48800000D03*
X155937500Y-48800000D03*
X154062500Y-48800000D03*
D16*
X143975000Y-79305000D03*
X143975000Y-78035000D03*
X143975000Y-76765000D03*
X143975000Y-75495000D03*
X139025000Y-75495000D03*
X139025000Y-76765000D03*
X139025000Y-78035000D03*
X139025000Y-79305000D03*
D13*
X125250000Y-93700000D03*
X123150000Y-93700000D03*
X125250000Y-101500000D03*
X123150000Y-101500000D03*
D11*
X149137500Y-126900000D03*
X147262500Y-126900000D03*
D15*
X172100000Y-114062500D03*
X172100000Y-115937500D03*
D10*
X143762500Y-124650000D03*
X145637500Y-124650000D03*
X143762500Y-129150000D03*
X145637500Y-129150000D03*
D11*
X149137500Y-122400000D03*
X147262500Y-122400000D03*
D14*
X174200000Y-125937500D03*
X174200000Y-124062500D03*
D11*
X149137500Y-129150000D03*
X147262500Y-129150000D03*
X149137500Y-124650000D03*
X147262500Y-124650000D03*
D10*
X153362500Y-131400000D03*
X155237500Y-131400000D03*
D15*
X128900000Y-69762500D03*
X128900000Y-71637500D03*
X130900000Y-69762500D03*
X130900000Y-71637500D03*
D17*
X163300000Y-119655000D03*
X163300000Y-120925000D03*
X163300000Y-122195000D03*
X163300000Y-123465000D03*
X163300000Y-124735000D03*
X163300000Y-126005000D03*
X163300000Y-127275000D03*
X163300000Y-128545000D03*
X168700000Y-128545000D03*
X168700000Y-127275000D03*
X168700000Y-126005000D03*
X168700000Y-124735000D03*
X168700000Y-123465000D03*
X168700000Y-122195000D03*
X168700000Y-120925000D03*
X168700000Y-119655000D03*
D13*
X140450000Y-83200000D03*
X138350000Y-83200000D03*
X144650000Y-83200000D03*
X142550000Y-83200000D03*
D11*
X155237500Y-122400000D03*
X153362500Y-122400000D03*
D10*
X141062500Y-96700000D03*
X142937500Y-96700000D03*
D15*
X188300000Y-100562500D03*
X188300000Y-102437500D03*
D13*
X140450000Y-81200000D03*
X138350000Y-81200000D03*
D15*
X188300000Y-108962500D03*
X188300000Y-110837500D03*
X186200000Y-108962500D03*
X186200000Y-110837500D03*
D11*
X146437500Y-99200000D03*
X144562500Y-99200000D03*
X146437500Y-96700000D03*
X144562500Y-96700000D03*
D13*
X125250000Y-91500000D03*
X123150000Y-91500000D03*
X192950000Y-109000000D03*
X190850000Y-109000000D03*
D11*
X186737500Y-116800000D03*
X184862500Y-116800000D03*
X186737500Y-125100000D03*
X184862500Y-125100000D03*
D10*
X167962500Y-100100000D03*
X169837500Y-100100000D03*
D11*
X173275000Y-100100000D03*
X171400000Y-100100000D03*
D14*
X148900000Y-70937500D03*
X148900000Y-69062500D03*
X146800000Y-70937500D03*
X146800000Y-69062500D03*
X159900000Y-53537500D03*
X159900000Y-51662500D03*
D15*
X162000000Y-51662500D03*
X162000000Y-53537500D03*
D14*
X186200000Y-102437500D03*
X186200000Y-100562500D03*
D18*
X119725000Y-95695000D03*
X119725000Y-96965000D03*
X119725000Y-98235000D03*
X119725000Y-99505000D03*
X124675000Y-99505000D03*
X124675000Y-98235000D03*
X124675000Y-96965000D03*
X124675000Y-95695000D03*
X119725000Y-85695000D03*
X119725000Y-86965000D03*
X119725000Y-88235000D03*
X119725000Y-89505000D03*
X124675000Y-89505000D03*
X124675000Y-88235000D03*
X124675000Y-86965000D03*
X124675000Y-85695000D03*
D19*
X155000000Y-101205000D03*
X155000000Y-99935000D03*
X155000000Y-98665000D03*
X155000000Y-97395000D03*
X149600000Y-97395000D03*
X149600000Y-98665000D03*
X149600000Y-99935000D03*
X149600000Y-101205000D03*
D16*
X143975000Y-88905000D03*
X143975000Y-87635000D03*
X143975000Y-86365000D03*
X143975000Y-85095000D03*
X139025000Y-85095000D03*
X139025000Y-86365000D03*
X139025000Y-87635000D03*
X139025000Y-88905000D03*
D20*
X184500000Y-48750000D03*
X188500000Y-48750000D03*
D21*
X184350000Y-53000000D03*
X188650000Y-53000000D03*
D22*
X174300000Y-96825000D03*
X171800000Y-96825000D03*
X169300000Y-96825000D03*
X174300000Y-91175000D03*
X171800000Y-91175000D03*
X169300000Y-91175000D03*
D23*
X173050000Y-49525000D03*
X173050000Y-43975000D03*
X168200000Y-49525000D03*
X168200000Y-43975000D03*
D24*
X179775000Y-49290000D03*
X179775000Y-46750000D03*
X179775000Y-44210000D03*
D10*
X149362500Y-95500000D03*
X151237500Y-95500000D03*
D11*
X154737500Y-95500000D03*
X152862500Y-95500000D03*
D10*
X149362500Y-87000000D03*
X151237500Y-87000000D03*
D11*
X154737500Y-87000000D03*
X152862500Y-87000000D03*
D13*
X144650000Y-81200000D03*
X142550000Y-81200000D03*
D25*
X154050000Y-109300000D03*
X152150000Y-109300000D03*
X153100000Y-111300000D03*
X146850000Y-109300000D03*
X144950000Y-109300000D03*
X145900000Y-111300000D03*
X150450000Y-109300000D03*
X148550000Y-109300000D03*
X149500000Y-111300000D03*
D11*
X180737500Y-94000000D03*
X178862500Y-94000000D03*
D10*
X178862500Y-91200000D03*
X180737500Y-91200000D03*
D26*
X184771500Y-41910000D03*
X187846500Y-41910000D03*
D10*
X191362500Y-51500000D03*
X193237500Y-51500000D03*
X186260500Y-44831000D03*
X188135500Y-44831000D03*
D14*
X174200000Y-115937500D03*
X174200000Y-114062500D03*
D10*
X130562500Y-48514000D03*
X132437500Y-48514000D03*
D11*
X149137500Y-131400000D03*
X147262500Y-131400000D03*
D19*
X155000000Y-92705000D03*
X155000000Y-91435000D03*
X155000000Y-90165000D03*
X155000000Y-88895000D03*
X149600000Y-88895000D03*
X149600000Y-90165000D03*
X149600000Y-91435000D03*
X149600000Y-92705000D03*
D10*
X160962500Y-90500000D03*
X162837500Y-90500000D03*
X160962500Y-92500000D03*
X162837500Y-92500000D03*
D11*
X132437500Y-41656000D03*
X130562500Y-41656000D03*
X146537500Y-118700000D03*
X144662500Y-118700000D03*
D10*
X141062500Y-91700000D03*
X142937500Y-91700000D03*
D11*
X165837500Y-108900000D03*
X163962500Y-108900000D03*
D10*
X126862500Y-48514000D03*
X128737500Y-48514000D03*
X126862500Y-46228000D03*
X128737500Y-46228000D03*
X126862500Y-41656000D03*
X128737500Y-41656000D03*
X126862500Y-43942000D03*
X128737500Y-43942000D03*
D14*
X157900000Y-111237500D03*
X157900000Y-109362500D03*
D10*
X192362500Y-112900000D03*
X194237500Y-112900000D03*
X186725000Y-94000000D03*
X188600000Y-94000000D03*
D27*
X174900000Y-100100000D03*
X176950000Y-100100000D03*
D10*
X172200000Y-108900000D03*
X174075000Y-108900000D03*
D28*
X154029500Y-115570000D03*
X149754500Y-115570000D03*
D29*
X185568500Y-90170000D03*
X189843500Y-90170000D03*
D13*
X166950000Y-117500000D03*
X169050000Y-117500000D03*
D14*
X199898000Y-90853500D03*
X199898000Y-88978500D03*
D11*
X196771500Y-90678000D03*
X194896500Y-90678000D03*
D10*
X153362500Y-120142000D03*
X155237500Y-120142000D03*
D11*
X159179500Y-120142000D03*
X157304500Y-120142000D03*
M02*
